<svg width="120" height="120" viewBox="0 0 120 120" fill="none" xmlns="http://www.w3.org/2000/svg">
<path d="M60 50V63L47.642 72.927" stroke="#59B7D3" stroke-width="2" stroke-miterlimit="10" stroke-linecap="round" stroke-linejoin="round"/>
<path d="M60 63L72.413 72.869" stroke="#59B7D3" stroke-width="2" stroke-miterlimit="10" stroke-linecap="round" stroke-linejoin="round"/>
<path d="M60 50C64.9706 50 69 45.9706 69 41C69 36.0294 64.9706 32 60 32C55.0294 32 51 36.0294 51 41C51 45.9706 55.0294 50 60 50Z" stroke="#59B7D3" stroke-width="2" stroke-miterlimit="10" stroke-linecap="round" stroke-linejoin="round"/>
<path d="M41 88C45.9706 88 50 83.9706 50 79C50 74.0294 45.9706 70 41 70C36.0294 70 32 74.0294 32 79C32 83.9706 36.0294 88 41 88Z" stroke="#59B7D3" stroke-width="2" stroke-miterlimit="10" stroke-linecap="round" stroke-linejoin="round"/>
<path d="M79 88C83.9706 88 88 83.9706 88 79C88 74.0294 83.9706 70 79 70C74.0294 70 70 74.0294 70 79C70 83.9706 74.0294 88 79 88Z" stroke="#59B7D3" stroke-width="2" stroke-miterlimit="10" stroke-linecap="round" stroke-linejoin="round"/>
</svg>
