<?xml version="1.0" encoding="utf-8"?>
<!-- Generator: Adobe Illustrator 24.1.3, SVG Export Plug-In . SVG Version: 6.00 Build 0)  -->
<svg version="1.1" xmlns="http://www.w3.org/2000/svg" xmlns:xlink="http://www.w3.org/1999/xlink" x="0px" y="0px"
	 viewBox="0 0 117.1 62" style="enable-background:new 0 0 117.1 62;" xml:space="preserve">
<style type="text/css">
	.st0{fill:#CC2D57;}
	.st1{fill:#161A45;}
	.st2{fill:#172952;}
	.st3{fill:#03958B;}
	.st4{fill:#519BC4;}
</style>
<g id="Layer_1">
</g>
<g id="Layer_2">
	<g>
		<g>
			<path class="st2" d="M114.5,39.1v-7.6c0-0.9-0.1-1.8-0.3-2.5c-0.2-0.7-0.5-1.4-0.9-1.9c-0.4-0.5-1-0.9-1.8-1.2
				c-0.7-0.3-1.7-0.4-2.8-0.4c-1.1,0-2.2,0.1-3.2,0.2c-1,0.2-1.8,0.3-2.4,0.5v12.9h3.5V28.6l0.1,0c0.2,0,0.5-0.1,0.8-0.1
				c0.3,0,0.6,0,0.9,0c0.9,0,1.6,0.3,1.9,0.8c0.3,0.5,0.5,1.4,0.5,2.7v7.1H114.5z M94.9,28.3c-0.4,0-0.8,0.1-1.2,0.2
				c-0.3,0.2-0.6,0.4-0.8,0.6c-0.2,0.3-0.4,0.6-0.5,0.9c-0.1,0.3-0.2,0.7-0.2,1l0,0.2h5.4l0-0.1c0-0.3-0.1-0.7-0.2-1
				c-0.1-0.3-0.3-0.6-0.5-0.9c-0.2-0.3-0.5-0.5-0.8-0.6C95.8,28.4,95.4,28.3,94.9,28.3 M95.5,39.5c-1.2,0-2.2-0.2-3.1-0.5
				c-0.9-0.4-1.6-0.8-2.2-1.5c-0.6-0.6-1-1.4-1.3-2.2c-0.3-0.8-0.4-1.8-0.4-2.8c0-1.2,0.2-2.2,0.5-3.1c0.4-0.9,0.8-1.6,1.4-2.2
				c0.6-0.6,1.3-1,2-1.3c0.8-0.3,1.5-0.5,2.3-0.5c1.9,0,3.4,0.6,4.4,1.7c1.1,1.2,1.6,2.9,1.6,5.1c0,0.2,0,0.5,0,0.7
				c0,0.2,0,0.4,0,0.6h-8.7l0,0.2c0.1,0.8,0.5,1.5,1.2,2c0.7,0.5,1.6,0.7,2.7,0.7c0.7,0,1.4-0.1,2.1-0.2c0.6-0.1,1.1-0.3,1.5-0.4
				l0.5,2.9c-0.2,0.1-0.4,0.2-0.7,0.3c-0.3,0.1-0.7,0.2-1.1,0.3c-0.4,0.1-0.9,0.1-1.3,0.2C96.5,39.5,96,39.5,95.5,39.5 M88.3,39.1
				L87.6,36h-8.5l0.1-0.2c0.6-1,1.3-2.1,2.1-3.3c0.8-1.1,1.6-2.3,2.4-3.3c0.8-1.1,1.6-2.1,2.3-3c0.7-0.9,1.4-1.6,1.9-2.2v-2.6H75
				l0.7,3.1h7.4l-0.2,0.2c-0.7,0.8-1.4,1.7-2.2,2.8c-0.8,1-1.5,2.1-2.3,3.2c-0.7,1.1-1.5,2.2-2.2,3.3c-0.7,1.1-1.3,2.1-1.7,2.9v2.3
				H88.3z M67.5,33.3c-0.4,0-0.7,0-1,0.1c-0.3,0-0.6,0.1-0.9,0.3c-0.3,0.1-0.5,0.3-0.6,0.5c-0.2,0.2-0.2,0.5-0.2,0.9
				c0,0.7,0.2,1.1,0.7,1.4c0.4,0.2,1,0.4,1.7,0.4c0.4,0,0.7,0,1.1,0c0.3,0,0.6,0,0.8-0.1l0.1,0v-3.2l-0.1,0c-0.2,0-0.4-0.1-0.7-0.1
				C68,33.3,67.7,33.3,67.5,33.3 M66.9,39.4c-0.9,0-1.6-0.1-2.3-0.2c-0.7-0.2-1.3-0.4-1.8-0.7c-0.5-0.3-0.9-0.8-1.1-1.3
				c-0.3-0.5-0.4-1.2-0.4-2c0-0.8,0.2-1.4,0.5-2c0.3-0.5,0.7-1,1.2-1.3c0.5-0.3,1.1-0.6,1.8-0.7c0.7-0.1,1.4-0.2,2.1-0.2
				c0.5,0,0.9,0,1.3,0.1c0.4,0,0.7,0.1,0.9,0.2l0.2,0.1v-0.5c0-0.7-0.2-1.3-0.6-1.7c-0.4-0.4-1.1-0.6-2.1-0.6c-0.7,0-1.3,0-1.9,0.1
				c-0.6,0.1-1.1,0.2-1.5,0.4L62.5,26c0.2-0.1,0.4-0.1,0.7-0.2c0.3-0.1,0.7-0.1,1.1-0.2c0.4-0.1,0.8-0.1,1.2-0.2
				c0.4,0,0.9-0.1,1.3-0.1c1.1,0,2,0.1,2.8,0.4c0.7,0.3,1.3,0.6,1.8,1.1c0.4,0.5,0.7,1,0.9,1.7c0.2,0.7,0.3,1.4,0.3,2.3v7.9
				c-0.5,0.1-1.3,0.3-2.2,0.4C69.4,39.3,68.2,39.4,66.9,39.4 M59,39.3c0.5-0.1,1-0.3,1.4-0.4l-0.5-2.7c-0.3,0.1-0.7,0.2-1.1,0.3
				c-0.4,0.1-0.9,0.1-1.3,0.1c-0.9,0-1.5-0.3-1.8-0.8c-0.3-0.5-0.4-1.2-0.4-2v-4.9h4.6v-2.9h-4.6v-2.9l-3.5,0.6v10.3
				c0,0.9,0.1,1.7,0.2,2.4c0.2,0.7,0.4,1.3,0.8,1.8c0.4,0.5,0.9,0.9,1.6,1.2c0.7,0.3,1.5,0.4,2.5,0.4C57.7,39.5,58.4,39.4,59,39.3
				 M44.1,33.3c-0.4,0-0.7,0-1,0.1c-0.3,0-0.6,0.1-0.9,0.3c-0.3,0.1-0.5,0.3-0.6,0.5c-0.2,0.2-0.2,0.5-0.2,0.9
				c0,0.7,0.2,1.1,0.7,1.4c0.4,0.2,1,0.4,1.7,0.4c0.4,0,0.7,0,1.1,0c0.3,0,0.6,0,0.8-0.1l0.1,0v-3.2l-0.1,0c-0.2,0-0.4-0.1-0.7-0.1
				C44.6,33.3,44.3,33.3,44.1,33.3 M43.4,39.4c-0.9,0-1.6-0.1-2.3-0.2c-0.7-0.2-1.3-0.4-1.8-0.7c-0.5-0.3-0.9-0.8-1.1-1.3
				c-0.3-0.5-0.4-1.2-0.4-2c0-0.8,0.2-1.4,0.5-2c0.3-0.5,0.7-1,1.2-1.3c0.5-0.3,1.1-0.6,1.8-0.7c0.7-0.1,1.4-0.2,2.1-0.2
				c0.5,0,0.9,0,1.3,0.1c0.4,0,0.7,0.1,0.9,0.2l0.2,0.1v-0.5c0-0.7-0.2-1.3-0.6-1.7c-0.4-0.4-1.1-0.6-2.1-0.6c-0.7,0-1.3,0-1.9,0.1
				c-0.6,0.1-1.1,0.2-1.5,0.4L39.1,26c0.2-0.1,0.4-0.1,0.7-0.2c0.3-0.1,0.7-0.1,1.1-0.2c0.4-0.1,0.8-0.1,1.2-0.2
				c0.4,0,0.9-0.1,1.3-0.1c1.1,0,2,0.1,2.8,0.4c0.7,0.3,1.3,0.6,1.8,1.1c0.4,0.5,0.7,1,0.9,1.7c0.2,0.7,0.3,1.4,0.3,2.3v7.9
				c-0.5,0.1-1.3,0.3-2.2,0.4C46,39.3,44.8,39.4,43.4,39.4 M30,28.5c-1.9,0-2.9,1.3-2.9,3.9c0,1.2,0.3,2.2,0.8,3
				c0.6,0.8,1.4,1.1,2.5,1.1c0.3,0,0.7,0,1,0c0.3,0,0.5-0.1,0.7-0.1l0.1,0v-7.2l-0.1,0c-0.3-0.2-0.6-0.3-1-0.4
				C30.8,28.5,30.4,28.5,30,28.5 M30.4,39.5c-1.1,0-2.1-0.2-2.9-0.5c-0.8-0.3-1.6-0.8-2.2-1.4c-0.6-0.6-1-1.3-1.3-2.2
				c-0.3-0.9-0.5-1.8-0.5-2.9c0-1.1,0.1-2.1,0.4-3c0.3-0.9,0.7-1.6,1.2-2.2c0.5-0.6,1.1-1.1,1.8-1.4c0.7-0.3,1.6-0.5,2.5-0.5
				c0.5,0,1,0.1,1.4,0.2c0.4,0.1,0.8,0.2,1.2,0.4l0.2,0.1v-5.9l3.5-0.6v19.1c-0.3,0.1-0.7,0.2-1.1,0.3c-0.4,0.1-0.9,0.2-1.4,0.2
				c-0.5,0.1-1,0.1-1.5,0.2C31.4,39.5,30.9,39.5,30.4,39.5"/>
		</g>
		<g>
			<g>
				<g>
					<g>
						<path class="st3" d="M14.7,48.7c-0.5-0.5-1.1-1.1-1.5-1.6c-4.3-4.9-6.4-11.2-6-17.7c0.4-6.5,3.2-12.5,8.1-16.8
							c3.4-3,7.5-5,11.9-5.8l0.8,5c-3.5,0.6-6.7,2.2-9.4,4.6c-3.8,3.4-6.1,8.1-6.4,13.3c-0.3,5.1,1.4,10.1,4.7,14
							c0.4,0.4,0.8,0.9,1.2,1.3L14.7,48.7z"/>
					</g>
				</g>
			</g>
		</g>
		<g>
			<g>
				<g>
					<g>
						<path class="st3" d="M31.2,55.3c-4.9,0-9.8-1.5-13.8-4.4l2.9-4.2c4,2.9,9.2,4.1,14,3.2l0.8,5C33.8,55.2,32.5,55.3,31.2,55.3z"
							/>
					</g>
				</g>
			</g>
		</g>
		<g>
			<g>
				<g>
					<g>
						<path class="st3" d="M31.1,60c-2.3,0-4.6-0.3-6.8-0.8C9,55.4-0.4,39.6,3.4,24.1C6.6,10.8,18.7,1.5,32.2,2l-0.1,1.9
							C19.5,3.4,8.2,12.1,5.2,24.5c-3.5,14.5,5.3,29.2,19.6,32.8c6.1,1.5,12.5,0.8,18.1-2l0.8,1.7C39.7,59,35.4,60,31.1,60z"/>
					</g>
				</g>
			</g>
		</g>
	</g>
</g>
<g id="Layer_3">
</g>
<g id="Layer_4">
</g>
<g id="Layer_5">
</g>
</svg>
