<svg xmlns="http://www.w3.org/2000/svg" viewBox="0 0 150 58"><g style="isolation:isolate"><g id="Layer_25" data-name="Layer 25"><g style="mix-blend-mode:multiply"><path d="M12.78,46.35c-.53-.51-1-1-1.53-1.58A23.91,23.91,0,0,1,25.11,5.36L26,10.3A18.89,18.89,0,0,0,15,41.45c.38.43.79.85,1.21,1.24Z" style="fill:#03948b"/></g><g style="mix-blend-mode:multiply"><path d="M29.21,52.82A24.06,24.06,0,0,1,15.43,48.5l2.88-4.1a19,19,0,0,0,14,3.16l.83,4.94A23.32,23.32,0,0,1,29.21,52.82Z" style="fill:#519ac3"/></g><g style="mix-blend-mode:multiply"><path d="M29.15,57.4A28.4,28.4,0,1,1,30.22.63l-.07,1.83A26.56,26.56,0,1,0,40.84,52.85l.81,1.65A28.36,28.36,0,0,1,29.15,57.4Z" style="fill:#9c1c2d"/></g><path d="M34.07,35.49l0,2.57a27.44,27.44,0,0,1-5.41.73c-3.92,0-5.59-1.95-5.59-6.63s1.95-7,5.75-7,5.67,1.95,5.67,5.88l-.26,2.42H26.63c0,1.56.76,2.26,2.63,2.26C31.39,35.72,34.07,35.49,34.07,35.49Zm-3-4.68c0-2.11-.6-2.79-2.24-2.79s-2.24.81-2.26,2.79Z" style="fill:#182951"/><path d="M48.55,38.19a29.05,29.05,0,0,1-5.15.6c-5.46,0-6.76-3-6.76-9.15,0-6.71,1.51-9.16,6.76-9.16a25.06,25.06,0,0,1,5.18.71l-.11,2.86a37.09,37.09,0,0,0-4.55-.39c-2.73,0-3.58,1-3.58,6,0,4.75.62,6,3.69,6a38.5,38.5,0,0,0,4.44-.37Z" style="fill:#182951"/><path d="M51.15,38.48V20.28h3.49V26.1a8.57,8.57,0,0,1,3.22-.94c3.64,0,4.58,2.29,4.58,6.27v7H59v-7c0-2-.26-3.23-2-3.23a8.45,8.45,0,0,0-2.36.42v9.78Z" style="fill:#182951"/><path d="M75.49,34.94c.05.78.15,1.09.86,1.22l-.11,2.63a5.8,5.8,0,0,1-3.72-.91,10,10,0,0,1-3.82.91c-2.73,0-4-1.51-4-4.27,0-2.93,1.69-3.77,4.55-4L72,30.34v-.81c0-1.12-.49-1.4-1.53-1.4-1.72,0-4.89.21-4.89.21l-.1-2.42a23.49,23.49,0,0,1,5.28-.76c3.38,0,4.73,1.33,4.73,4.37Zm-5.85-2c-.91.08-1.46.52-1.46,1.46S68.52,36,69.46,36A11.24,11.24,0,0,0,72,35.54V32.76Z" style="fill:#182951"/><path d="M78.81,20.28H82.3v3.53H78.81Zm0,5.2H82.3v13H78.81Z" style="fill:#182951"/><path d="M85.52,38.48v-13H89v.72a7.88,7.88,0,0,1,3.25-1c3.64,0,4.58,2.29,4.58,6.27v7H93.32V31.53c0-2-.26-3.25-1.95-3.25a7,7,0,0,0-2.36.47v9.73Z" style="fill:#182951"/><path d="M105.93,20.8h11.44v3.12h-7.85v4.13h6.29v3.07h-6.29v4.24h7.85v3.12H105.93Z" style="fill:#182951"/><path d="M123.92,32.55v5.93h-3.58V20.8h6.86c4,0,6.24,1.79,6.24,5.82a5.62,5.62,0,0,1-2.6,5.1l2.52,6.76h-3.92l-2.06-5.93Zm3.28-8.69h-3.28v5.62h3.33c1.8,0,2.52-1.25,2.52-2.81S128.92,23.86,127.2,23.86Z" style="fill:#182951"/><path d="M140,33.33v5.15h-3.58V20.8H143c4.16,0,6.29,2,6.29,6.13s-2.13,6.4-6.29,6.4Zm2.89-3.07c1.79,0,2.68-1.09,2.68-3.33s-.89-3.07-2.68-3.07H140v6.4Z" style="fill:#182951"/></g></g></svg>