<?xml version="1.0" encoding="utf-8"?>
<!-- Generator: Adobe Illustrator 24.1.3, SVG Export Plug-In . SVG Version: 6.00 Build 0)  -->
<svg version="1.1" id="Layer_1" xmlns="http://www.w3.org/2000/svg" xmlns:xlink="http://www.w3.org/1999/xlink" x="0px" y="0px"
	 viewBox="0 0 230.5 62" style="enable-background:new 0 0 230.5 62;" xml:space="preserve">
<style type="text/css">
	.st0{fill:#CC2D57;}
	.st1{fill:#161A45;}
	.st2{fill:#172952;}
	.st3{fill:#03958B;}
	.st4{fill:#162A51;}
	.st5{fill:#9D1C2E;}
	.st6{fill:#519BC4;}
	.st7{fill:#08968C;}
	.st8{fill:#9D1C2D;}
	.st9{fill:#137CC1;}
	.st10{fill:#48BCEC;}
</style>
<g>
	<g>
		<g>
			<g>
				<g>
					<g>
						<path class="st0" d="M-1427.1,48.7c-0.5-0.5-1.1-1.1-1.5-1.6c-4.3-4.9-6.4-11.2-6-17.7s3.2-12.5,8.1-16.8
							c3.4-3,7.5-5,11.9-5.8l0.8,5c-3.5,0.6-6.7,2.2-9.4,4.6c-3.8,3.4-6.1,8.1-6.4,13.3c-0.3,5.1,1.4,10.1,4.7,14
							c0.4,0.4,0.8,0.9,1.2,1.3L-1427.1,48.7z"/>
					</g>
				</g>
			</g>
		</g>
		<g>
			<g>
				<g>
					<g>
						<path class="st0" d="M-1410.6,55.3c-4.9,0-9.8-1.5-13.8-4.4l2.9-4.2c4,2.9,9.2,4.1,14,3.2l0.8,5
							C-1407.9,55.2-1409.2,55.3-1410.6,55.3z"/>
					</g>
				</g>
			</g>
		</g>
		<g>
			<g>
				<g>
					<g>
						<path class="st0" d="M-1410.6,60c-2.3,0-4.6-0.3-6.8-0.8c-15.3-3.8-24.7-19.5-20.9-35.1c3.2-13.3,15.3-22.6,28.8-22.1
							l-0.1,1.9c-12.6-0.5-23.9,8.2-26.9,20.6c-3.5,14.5,5.3,29.2,19.6,32.8c6.1,1.5,12.5,0.8,18.1-2l0.8,1.7
							C-1402,59-1406.3,60-1410.6,60z"/>
					</g>
				</g>
			</g>
		</g>
		<g>
			<path class="st1" d="M-1411.3,39.5c-1.1,0-2.1-0.2-2.9-0.5c-0.8-0.3-1.6-0.8-2.2-1.4c-0.6-0.6-1-1.3-1.3-2.2
				c-0.3-0.9-0.5-1.8-0.5-2.9c0-1.1,0.1-2.1,0.4-3c0.3-0.9,0.7-1.6,1.2-2.2c0.5-0.6,1.1-1.1,1.8-1.4c0.7-0.3,1.6-0.5,2.5-0.5
				c0.5,0,1,0.1,1.4,0.2c0.4,0.1,0.8,0.2,1.2,0.4l0.2,0.1v-5.9l3.5-0.6v19.2c-0.3,0.1-0.7,0.2-1.1,0.3c-0.4,0.1-0.9,0.2-1.4,0.2
				c-0.5,0.1-1,0.1-1.5,0.2C-1410.3,39.5-1410.8,39.5-1411.3,39.5 M-1411.7,28.4c-1.9,0-2.9,1.3-2.9,3.9c0,1.2,0.3,2.2,0.8,3
				c0.6,0.8,1.4,1.2,2.5,1.2c0.3,0,0.7,0,1,0c0.3,0,0.5-0.1,0.7-0.1l0.1,0V29l-0.1,0c-0.3-0.2-0.6-0.3-1-0.4
				C-1410.9,28.5-1411.3,28.4-1411.7,28.4 M-1398.3,39.4c-0.9,0-1.6-0.1-2.3-0.2c-0.7-0.2-1.3-0.4-1.8-0.7c-0.5-0.3-0.9-0.8-1.1-1.3
				c-0.3-0.6-0.4-1.2-0.4-2.1c0-0.8,0.2-1.4,0.5-2c0.3-0.5,0.7-1,1.2-1.3c0.5-0.3,1.1-0.6,1.8-0.7c0.7-0.1,1.4-0.2,2.1-0.2
				c0.5,0,0.9,0,1.3,0.1c0.4,0,0.7,0.1,0.9,0.2l0.2,0.1v-0.6c0-0.7-0.2-1.3-0.6-1.7c-0.4-0.4-1.1-0.6-2.2-0.6c-0.7,0-1.3,0-1.9,0.1
				c-0.6,0.1-1.1,0.2-1.5,0.4l-0.4-2.8c0.2-0.1,0.4-0.1,0.7-0.2c0.3-0.1,0.7-0.1,1.1-0.2c0.4-0.1,0.8-0.1,1.2-0.2
				c0.4,0,0.9-0.1,1.3-0.1c1.1,0,2,0.1,2.8,0.4c0.7,0.3,1.3,0.6,1.8,1.1c0.4,0.5,0.7,1,0.9,1.7c0.2,0.7,0.3,1.4,0.3,2.3v8
				c-0.5,0.1-1.3,0.3-2.2,0.4C-1395.7,39.3-1396.9,39.4-1398.3,39.4 M-1397.6,33.2c-0.4,0-0.7,0-1,0.1c-0.3,0-0.6,0.1-0.9,0.3
				c-0.3,0.1-0.5,0.3-0.6,0.5c-0.2,0.2-0.2,0.5-0.2,0.9c0,0.7,0.2,1.1,0.7,1.4c0.4,0.2,1,0.4,1.7,0.4c0.4,0,0.7,0,1.1,0
				c0.3,0,0.6,0,0.8-0.1l0.1,0v-3.2l-0.1,0c-0.2,0-0.4-0.1-0.7-0.1C-1397.1,33.2-1397.4,33.2-1397.6,33.2 M-1382.7,39.2
				c0.5-0.1,1-0.3,1.4-0.4l-0.5-2.7c-0.3,0.1-0.7,0.2-1.1,0.3c-0.4,0.1-0.9,0.1-1.3,0.1c-0.9,0-1.5-0.3-1.8-0.8
				c-0.3-0.5-0.4-1.2-0.4-2v-5h4.6v-3h-4.6v-3l-3.5,0.6v10.3c0,0.9,0.1,1.7,0.2,2.4c0.2,0.7,0.4,1.3,0.8,1.8
				c0.4,0.5,0.9,0.9,1.6,1.2c0.7,0.3,1.5,0.4,2.5,0.4C-1383.9,39.5-1383.2,39.4-1382.7,39.2 M-1374.8,39.4c-0.9,0-1.6-0.1-2.3-0.2
				c-0.7-0.2-1.3-0.4-1.8-0.7c-0.5-0.3-0.9-0.8-1.1-1.3c-0.3-0.6-0.4-1.2-0.4-2.1c0-0.8,0.2-1.4,0.5-2c0.3-0.5,0.7-1,1.2-1.3
				c0.5-0.3,1.1-0.6,1.8-0.7c0.7-0.1,1.4-0.2,2.1-0.2c0.5,0,0.9,0,1.3,0.1c0.4,0,0.7,0.1,0.9,0.2l0.2,0.1v-0.6
				c0-0.7-0.2-1.3-0.6-1.7c-0.4-0.4-1.1-0.6-2.2-0.6c-0.7,0-1.3,0-1.9,0.1c-0.6,0.1-1.1,0.2-1.5,0.4l-0.4-2.8
				c0.2-0.1,0.4-0.1,0.7-0.2c0.3-0.1,0.7-0.1,1.1-0.2c0.4-0.1,0.8-0.1,1.2-0.2c0.4,0,0.9-0.1,1.3-0.1c1.1,0,2,0.1,2.8,0.4
				c0.7,0.3,1.3,0.6,1.8,1.1c0.4,0.5,0.7,1,0.9,1.7c0.2,0.7,0.3,1.4,0.3,2.3v8c-0.5,0.1-1.3,0.3-2.2,0.4
				C-1372.3,39.3-1373.4,39.4-1374.8,39.4 M-1374.2,33.2c-0.4,0-0.7,0-1,0.1c-0.3,0-0.6,0.1-0.9,0.3c-0.3,0.1-0.5,0.3-0.6,0.5
				c-0.2,0.2-0.2,0.5-0.2,0.9c0,0.7,0.2,1.1,0.7,1.4c0.4,0.2,1,0.4,1.7,0.4c0.4,0,0.7,0,1.1,0c0.3,0,0.6,0,0.8-0.1l0.1,0v-3.2
				l-0.1,0c-0.2,0-0.4-0.1-0.7-0.1C-1373.6,33.2-1373.9,33.2-1374.2,33.2 M-1353.4,39.1l-0.7-3.1h-8.5l0.1-0.2
				c0.6-1,1.3-2.1,2.1-3.3c0.8-1.1,1.6-2.3,2.4-3.3c0.8-1.1,1.6-2.1,2.3-3c0.7-0.9,1.4-1.6,1.9-2.2v-2.6h-13l0.7,3.1h7.4l-0.2,0.2
				c-0.7,0.8-1.4,1.7-2.2,2.8c-0.8,1-1.5,2.1-2.3,3.2c-0.7,1.1-1.5,2.2-2.2,3.3c-0.7,1.1-1.3,2.1-1.7,2.9v2.3H-1353.4z
				 M-1347.2,39.4c-0.9,0-1.6-0.1-2.3-0.2c-0.7-0.2-1.3-0.4-1.8-0.7c-0.5-0.3-0.9-0.8-1.1-1.3c-0.3-0.6-0.4-1.2-0.4-2.1
				c0-0.8,0.2-1.4,0.5-2c0.3-0.5,0.7-1,1.2-1.3c0.5-0.3,1.1-0.6,1.8-0.7c0.7-0.1,1.4-0.2,2.1-0.2c0.5,0,0.9,0,1.3,0.1
				c0.4,0,0.7,0.1,0.9,0.2l0.2,0.1v-0.6c0-0.7-0.2-1.3-0.6-1.7c-0.4-0.4-1.1-0.6-2.2-0.6c-0.7,0-1.3,0-1.9,0.1
				c-0.6,0.1-1.1,0.2-1.5,0.4l-0.4-2.8c0.2-0.1,0.4-0.1,0.7-0.2c0.3-0.1,0.7-0.1,1.1-0.2c0.4-0.1,0.8-0.1,1.2-0.2
				c0.4,0,0.9-0.1,1.3-0.1c1.1,0,2,0.1,2.8,0.4c0.7,0.3,1.3,0.6,1.8,1.1c0.4,0.5,0.7,1,0.9,1.7c0.2,0.7,0.3,1.4,0.3,2.3v8
				c-0.5,0.1-1.3,0.3-2.2,0.4C-1344.6,39.3-1345.8,39.4-1347.2,39.4 M-1346.6,33.2c-0.4,0-0.7,0-1,0.1c-0.3,0-0.6,0.1-0.9,0.3
				c-0.3,0.1-0.5,0.3-0.6,0.5c-0.2,0.2-0.2,0.5-0.2,0.9c0,0.7,0.2,1.1,0.7,1.4c0.4,0.2,1,0.4,1.7,0.4c0.4,0,0.7,0,1.1,0
				c0.3,0,0.6,0,0.8-0.1l0.1,0v-3.2l-0.1,0c-0.2,0-0.4-0.1-0.7-0.1C-1346,33.2-1346.3,33.2-1346.6,33.2 M-1338.7,44V26.1
				c0.3-0.1,0.7-0.2,1.1-0.3c0.4-0.1,0.9-0.2,1.4-0.2c0.5-0.1,1-0.1,1.5-0.2c0.5,0,1-0.1,1.4-0.1c1.1,0,2.1,0.2,2.9,0.5
				c0.8,0.3,1.6,0.8,2.2,1.4c0.6,0.6,1,1.3,1.3,2.2c0.3,0.9,0.5,1.8,0.5,2.9c0,1-0.1,2-0.4,2.9c-0.3,0.8-0.6,1.6-1.1,2.2
				c-0.5,0.6-1.1,1.1-1.8,1.4c-0.7,0.3-1.5,0.5-2.5,0.5c-0.5,0-1-0.1-1.5-0.2c-0.5-0.1-0.9-0.2-1.3-0.4l-0.2-0.1V44H-1338.7z
				 M-1333.4,28.4c-0.3,0-0.7,0-1,0c-0.3,0-0.5,0.1-0.7,0.1l-0.1,0v7.2l0.1,0c0.3,0.2,0.6,0.3,1,0.4c0.4,0.1,0.8,0.2,1.2,0.2
				c1.9,0,2.9-1.3,2.9-3.9c0-1.2-0.3-2.2-0.8-3C-1331.5,28.8-1332.3,28.4-1333.4,28.4"/>
		</g>
	</g>
</g>
<g>
	<g>
		<path class="st2" d="M-1146.4,39.1v-7.6c0-0.9-0.1-1.8-0.3-2.5c-0.2-0.7-0.5-1.4-0.9-1.9c-0.4-0.5-1-0.9-1.8-1.2
			c-0.7-0.3-1.7-0.4-2.8-0.4c-1.1,0-2.2,0.1-3.2,0.2c-1,0.2-1.8,0.3-2.4,0.5v12.9h3.5V28.6l0.1,0c0.2,0,0.5-0.1,0.8-0.1
			c0.3,0,0.6,0,0.9,0c0.9,0,1.6,0.3,1.9,0.8c0.3,0.5,0.5,1.4,0.5,2.7v7.1H-1146.4z M-1166,28.3c-0.4,0-0.8,0.1-1.2,0.2
			c-0.3,0.2-0.6,0.4-0.8,0.6c-0.2,0.3-0.4,0.6-0.5,0.9c-0.1,0.3-0.2,0.7-0.2,1l0,0.2h5.4l0-0.1c0-0.3-0.1-0.7-0.2-1
			c-0.1-0.3-0.3-0.6-0.5-0.9c-0.2-0.3-0.5-0.5-0.8-0.6C-1165.1,28.4-1165.5,28.3-1166,28.3 M-1165.4,39.5c-1.2,0-2.2-0.2-3.1-0.5
			c-0.9-0.4-1.6-0.8-2.2-1.5c-0.6-0.6-1-1.4-1.3-2.2c-0.3-0.8-0.4-1.8-0.4-2.8c0-1.2,0.2-2.2,0.5-3.1c0.4-0.9,0.8-1.6,1.4-2.2
			c0.6-0.6,1.3-1,2-1.3c0.8-0.3,1.5-0.5,2.3-0.5c1.9,0,3.4,0.6,4.4,1.7c1.1,1.2,1.6,2.9,1.6,5.1c0,0.2,0,0.5,0,0.7
			c0,0.2,0,0.4,0,0.6h-8.7l0,0.2c0.1,0.8,0.5,1.5,1.2,2c0.7,0.5,1.6,0.7,2.7,0.7c0.7,0,1.4-0.1,2.1-0.2c0.6-0.1,1.1-0.3,1.5-0.4
			l0.5,2.9c-0.2,0.1-0.4,0.2-0.7,0.3c-0.3,0.1-0.7,0.2-1.1,0.3c-0.4,0.1-0.9,0.1-1.3,0.2C-1164.4,39.5-1164.9,39.5-1165.4,39.5
			 M-1172.6,39.1l-0.7-3.1h-8.5l0.1-0.2c0.6-1,1.3-2.1,2.1-3.3c0.8-1.1,1.6-2.3,2.4-3.3c0.8-1.1,1.6-2.1,2.3-3
			c0.7-0.9,1.4-1.6,1.9-2.2v-2.6h-13l0.7,3.1h7.4l-0.2,0.2c-0.7,0.8-1.4,1.7-2.2,2.8c-0.8,1-1.5,2.1-2.3,3.2
			c-0.7,1.1-1.5,2.2-2.2,3.3c-0.7,1.1-1.3,2.1-1.7,2.9v2.3H-1172.6z M-1193.4,33.3c-0.4,0-0.7,0-1,0.1c-0.3,0-0.6,0.1-0.9,0.3
			c-0.3,0.1-0.5,0.3-0.6,0.5c-0.2,0.2-0.2,0.5-0.2,0.9c0,0.7,0.2,1.1,0.7,1.4c0.4,0.2,1,0.4,1.7,0.4c0.4,0,0.7,0,1.1,0
			c0.3,0,0.6,0,0.8-0.1l0.1,0v-3.2l-0.1,0c-0.2,0-0.4-0.1-0.7-0.1C-1192.9,33.3-1193.2,33.3-1193.4,33.3 M-1194,39.4
			c-0.9,0-1.6-0.1-2.3-0.2c-0.7-0.2-1.3-0.4-1.8-0.7c-0.5-0.3-0.9-0.8-1.1-1.3c-0.3-0.5-0.4-1.2-0.4-2c0-0.8,0.2-1.4,0.5-2
			c0.3-0.5,0.7-1,1.2-1.3c0.5-0.3,1.1-0.6,1.8-0.7c0.7-0.1,1.4-0.2,2.1-0.2c0.5,0,0.9,0,1.3,0.1c0.4,0,0.7,0.1,0.9,0.2l0.2,0.1v-0.5
			c0-0.7-0.2-1.3-0.6-1.7c-0.4-0.4-1.1-0.6-2.1-0.6c-0.7,0-1.3,0-1.9,0.1c-0.6,0.1-1.1,0.2-1.5,0.4l-0.4-2.8
			c0.2-0.1,0.4-0.1,0.7-0.2c0.3-0.1,0.7-0.1,1.1-0.2c0.4-0.1,0.8-0.1,1.2-0.2c0.4,0,0.9-0.1,1.3-0.1c1.1,0,2,0.1,2.8,0.4
			c0.7,0.3,1.3,0.6,1.8,1.1c0.4,0.5,0.7,1,0.9,1.7c0.2,0.7,0.3,1.4,0.3,2.3v7.9c-0.5,0.1-1.3,0.3-2.2,0.4
			C-1191.5,39.3-1192.7,39.4-1194,39.4 M-1201.9,39.3c0.5-0.1,1-0.3,1.4-0.4l-0.5-2.7c-0.3,0.1-0.7,0.2-1.1,0.3
			c-0.4,0.1-0.9,0.1-1.3,0.1c-0.9,0-1.5-0.3-1.8-0.8c-0.3-0.5-0.4-1.2-0.4-2v-4.9h4.6v-2.9h-4.6v-2.9l-3.5,0.6v10.3
			c0,0.9,0.1,1.7,0.2,2.4c0.2,0.7,0.4,1.3,0.8,1.8c0.4,0.5,0.9,0.9,1.6,1.2c0.7,0.3,1.5,0.4,2.5,0.4
			C-1203.2,39.5-1202.5,39.4-1201.9,39.3 M-1216.8,33.3c-0.4,0-0.7,0-1,0.1c-0.3,0-0.6,0.1-0.9,0.3c-0.3,0.1-0.5,0.3-0.6,0.5
			c-0.2,0.2-0.2,0.5-0.2,0.9c0,0.7,0.2,1.1,0.7,1.4c0.4,0.2,1,0.4,1.7,0.4c0.4,0,0.7,0,1.1,0c0.3,0,0.6,0,0.8-0.1l0.1,0v-3.2l-0.1,0
			c-0.2,0-0.4-0.1-0.7-0.1C-1216.3,33.3-1216.6,33.3-1216.8,33.3 M-1217.5,39.4c-0.9,0-1.6-0.1-2.3-0.2c-0.7-0.2-1.3-0.4-1.8-0.7
			c-0.5-0.3-0.9-0.8-1.1-1.3c-0.3-0.5-0.4-1.2-0.4-2c0-0.8,0.2-1.4,0.5-2c0.3-0.5,0.7-1,1.2-1.3c0.5-0.3,1.1-0.6,1.8-0.7
			c0.7-0.1,1.4-0.2,2.1-0.2c0.5,0,0.9,0,1.3,0.1c0.4,0,0.7,0.1,0.9,0.2l0.2,0.1v-0.5c0-0.7-0.2-1.3-0.6-1.7
			c-0.4-0.4-1.1-0.6-2.1-0.6c-0.7,0-1.3,0-1.9,0.1c-0.6,0.1-1.1,0.2-1.5,0.4l-0.4-2.8c0.2-0.1,0.4-0.1,0.7-0.2
			c0.3-0.1,0.7-0.1,1.1-0.2c0.4-0.1,0.8-0.1,1.2-0.2c0.4,0,0.9-0.1,1.3-0.1c1.1,0,2,0.1,2.8,0.4c0.7,0.3,1.3,0.6,1.8,1.1
			c0.4,0.5,0.7,1,0.9,1.7c0.2,0.7,0.3,1.4,0.3,2.3v7.9c-0.5,0.1-1.3,0.3-2.2,0.4C-1214.9,39.3-1216.1,39.4-1217.5,39.4
			 M-1230.9,28.5c-1.9,0-2.9,1.3-2.9,3.9c0,1.2,0.3,2.2,0.8,3c0.6,0.8,1.4,1.1,2.5,1.1c0.3,0,0.7,0,1,0c0.3,0,0.5-0.1,0.7-0.1l0.1,0
			v-7.2l-0.1,0c-0.3-0.2-0.6-0.3-1-0.4C-1230.1,28.5-1230.5,28.5-1230.9,28.5 M-1230.5,39.5c-1.1,0-2.1-0.2-2.9-0.5
			c-0.8-0.3-1.6-0.8-2.2-1.4c-0.6-0.6-1-1.3-1.3-2.2c-0.3-0.9-0.5-1.8-0.5-2.9c0-1.1,0.1-2.1,0.4-3c0.3-0.9,0.7-1.6,1.2-2.2
			c0.5-0.6,1.1-1.1,1.8-1.4c0.7-0.3,1.6-0.5,2.5-0.5c0.5,0,1,0.1,1.4,0.2c0.4,0.1,0.8,0.2,1.2,0.4l0.2,0.1v-5.9l3.5-0.6v19.1
			c-0.3,0.1-0.7,0.2-1.1,0.3c-0.4,0.1-0.9,0.2-1.4,0.2c-0.5,0.1-1,0.1-1.5,0.2C-1229.5,39.5-1230,39.5-1230.5,39.5"/>
	</g>
	<g>
		<g>
			<g>
				<g>
					<path class="st3" d="M-1246.2,48.7c-0.5-0.5-1.1-1.1-1.5-1.6c-4.3-4.9-6.4-11.2-6-17.7c0.4-6.5,3.2-12.5,8.1-16.8
						c3.4-3,7.5-5,11.9-5.8l0.8,5c-3.5,0.6-6.7,2.2-9.4,4.6c-3.8,3.4-6.1,8.1-6.4,13.3c-0.3,5.1,1.4,10.1,4.7,14
						c0.4,0.4,0.8,0.9,1.2,1.3L-1246.2,48.7z"/>
				</g>
			</g>
		</g>
	</g>
	<g>
		<g>
			<g>
				<g>
					<path class="st3" d="M-1229.7,55.3c-4.9,0-9.8-1.5-13.8-4.4l2.9-4.2c4,2.9,9.2,4.1,14,3.2l0.8,5
						C-1227.1,55.2-1228.4,55.3-1229.7,55.3z"/>
				</g>
			</g>
		</g>
	</g>
	<g>
		<g>
			<g>
				<g>
					<path class="st3" d="M-1229.8,60c-2.3,0-4.6-0.3-6.8-0.8c-15.3-3.8-24.7-19.5-20.9-35.1c3.2-13.3,15.3-22.6,28.8-22.1l-0.1,1.9
						c-12.6-0.5-23.9,8.2-26.9,20.6c-3.5,14.5,5.3,29.2,19.6,32.8c6.1,1.5,12.5,0.8,18.1-2l0.8,1.7C-1221.2,59-1225.5,60-1229.8,60z
						"/>
				</g>
			</g>
		</g>
	</g>
</g>
<rect x="-1086.9" y="29.5" class="st3" width="2.6" height="2.9"/>
<g>
	<g>
		<g>
			<path class="st4" d="M-669,21.7h6.8l4,17.7h-3.6l-0.7-3.2h-6.2l-0.7,3.2h-3.6L-669,21.7z M-668,33.1h4.8l-1.8-8.4h-1.2L-668,33.1
				z"/>
			<path class="st4" d="M-645.2,39.4h-3.5v-0.5c0,0-1.8,0.9-3.1,0.9c-3.9,0-5.1-2.3-5.1-6.9c0-4.8,1.8-6.8,5.4-6.8
				c1,0,2.8,0.4,2.8,0.4v-5.3h3.5V39.4z M-648.7,36.2v-6.8c0,0-1.4-0.3-2.5-0.3c-1.3,0-2.1,1.1-2.1,3.7c0,2.7,0.5,3.7,2.1,3.7
				C-650,36.6-648.7,36.2-648.7,36.2z"/>
			<path class="st4" d="M-642,39.4v-13h3.5v0.7c0,0,1.8-1,3.1-1c1.5,0,2.5,0.4,3.3,1.2c0,0,2.4-1.2,4.4-1.2c3.5,0,4.6,2.1,4.6,6.3v7
				h-3.5v-6.9c0-2-0.3-3.3-1.8-3.3c-1,0-2.4,0.5-2.4,0.5s0.1,1.9,0.1,3v6.7h-3.5v-6.7c0-2.3-0.2-3.5-1.8-3.5c-1.1,0-2.3,0.5-2.3,0.5
				v9.7H-642z"/>
			<path class="st4" d="M-620.2,21.2h3.5v3.5h-3.5V21.2z M-620.2,26.4h3.5v13h-3.5V26.4z"/>
			<path class="st4" d="M-613.5,39.4v-13h3.5v0.7c0,0,1.8-1,3.3-1c3.6,0,4.6,2.3,4.6,6.3v7h-3.5v-6.9c0-2-0.3-3.3-2-3.3
				c-1.2,0-2.4,0.5-2.4,0.5v9.7H-613.5z"/>
		</g>
	</g>
	<g>
		<path class="st3" d="M-683.2,16.8c-3.8,0.7-7.2,3-9.4,6.3c-4.5,6.7-2.8,15.8,3.7,20.2c2.4,1.6,5.1,2.5,7.9,2.5
			c0.9,0,1.8-0.1,2.7-0.3c0.8-0.2,1.6-0.4,2.4-0.7l-2-4.9c-0.5,0.2-0.9,0.3-1.4,0.4c-2.4,0.5-4.7,0-6.7-1.4c-4.2-2.8-5.2-8.7-2.3-13
			c1.4-2.1,3.6-3.5,6-4c2.1-0.4,4.2-0.1,6,0.9l2.7-4.5C-676.4,16.7-679.8,16.2-683.2,16.8z"/>
		<path class="st5" d="M-671.3,55.9l-5.1,1.5l-2.1-4.8l-0.7,0.1c-2.1,0.2-4.3,0.1-6.4-0.4l-0.7-0.1l-2.9,4.6l-5-2.2l1.5-5.3
			l-0.5-0.4c-1.7-1.2-3.2-2.7-4.5-4.4l-0.4-0.6l-5.3,1.7l-2.3-5l4.5-3.2l-0.2-0.6c-0.5-2-0.7-4.1-0.6-6.3l0-0.7l-5.1-2.1l1.4-5.4
			l5.5,0.5l0.3-0.6c0.5-1,1-2,1.7-3c0.5-0.8,1.1-1.6,1.8-2.3l0.4-0.5l-2.5-5l4.5-3.3l3.8,3.9l0.6-0.3c1.9-0.9,3.9-1.6,6-1.9l0.6-0.1
			l1.2-5.5l5.4,0.4l0.4,5.4l0.7,0.2c1.8,0.5,3.6,1.2,5.3,2.2l1-1.7l0,0c-1.6-0.9-3.3-1.7-5.1-2.2l-0.4-5.7l-8.8-0.6l-1.3,5.8
			c-1.8,0.3-3.6,0.9-5.2,1.6l-4-4.2l-7.1,5.3l2.7,5.3c-0.5,0.6-1,1.3-1.5,2c-0.6,0.8-1.1,1.7-1.5,2.6l-5.8-0.5l-2.2,8.6l5.4,2.3
			c0,1.8,0.2,3.7,0.6,5.5l-4.8,3.4l3.8,8l5.6-1.8c1.1,1.4,2.5,2.7,3.9,3.8l-1.6,5.6l8,3.6l3.1-4.9c1.8,0.3,3.7,0.5,5.6,0.3l2.3,5.1
			l6.9-2L-671.3,55.9z"/>
	</g>
</g>
<g>
	<g>
		<g>
			<g>
				<g>
					<path class="st6" d="M-540.9,55.3c-4.9,0-9.8-1.5-13.8-4.4l2.9-4.2c4,2.9,9.2,4.1,14,3.2l0.8,5
						C-538.3,55.2-539.6,55.3-540.9,55.3z"/>
				</g>
			</g>
		</g>
	</g>
	<g>
		<g>
			<g>
				<g>
					<g>
						<g>
							<path class="st7" d="M-557.4,48.7c-0.5-0.5-1.1-1.1-1.5-1.6c-4.3-4.9-6.4-11.2-6-17.7c0.4-6.5,3.2-12.5,8.1-16.8
								c3.4-3,7.5-5,11.9-5.8l0.8,5c-3.5,0.6-6.7,2.2-9.4,4.6c-3.8,3.4-6.1,8.1-6.4,13.3c-0.3,5.1,1.4,10.1,4.7,14
								c0.4,0.4,0.8,0.9,1.2,1.3L-557.4,48.7z"/>
						</g>
					</g>
				</g>
			</g>
			<g>
				<g>
					<g>
						<g>
							<path class="st8" d="M-541,60c-2.3,0-4.6-0.3-6.8-0.8c-15.3-3.8-24.7-19.5-20.9-35.1c3.2-13.3,15.3-22.6,28.8-22.1l-0.1,1.9
								c-12.6-0.5-23.9,8.2-26.9,20.6c-3.5,14.5,5.3,29.2,19.6,32.8c6.1,1.5,12.5,0.8,18.1-2l0.8,1.7C-532.3,59-536.6,60-541,60z"/>
						</g>
					</g>
				</g>
			</g>
		</g>
		<g>
			<path class="st2" d="M-536.5,24.8c0,0-3.7-0.4-5.2-0.4c-1.9,0-2.8,0.7-2.8,1.9c0,1.1,0.7,1.5,3.7,2.4c3.8,1.2,5,2.3,5,5.2
				c0,3.8-2.6,5.6-6.1,5.6c-2.4,0-5.9-0.8-5.9-0.8l0.4-2.8c0,0,3.5,0.5,5.3,0.5c1.9,0,2.8-0.9,2.8-2.3c0-1.1-0.6-1.6-3.2-2.3
				c-4-1.1-5.5-2.5-5.5-5.3c0-3.7,2.4-5.3,6-5.3c2.4,0,5.8,0.7,5.8,0.7L-536.5,24.8z"/>
			<path class="st2" d="M-533.3,39.2v-13h3.5v0.7c0,0,1.8-1,3.1-1c1.5,0,2.5,0.4,3.3,1.2c0,0,2.4-1.2,4.4-1.2c3.5,0,4.6,2.1,4.6,6.3
				v7h-3.5v-6.9c0-2-0.3-3.3-1.8-3.3c-1,0-2.4,0.5-2.4,0.5s0.1,1.9,0.1,3v6.7h-3.5v-6.7c0-2.3-0.2-3.5-1.8-3.5
				c-1.1,0-2.3,0.5-2.3,0.5v9.7H-533.3z"/>
			<path class="st2" d="M-501.5,35.7c0.1,0.8,0.2,1.1,0.9,1.2l-0.1,2.6c-1.7,0-2.6-0.2-3.7-0.9c0,0-1.9,0.9-3.8,0.9
				c-2.7,0-4-1.5-4-4.3c0-2.9,1.7-3.8,4.6-4l2.8-0.2v-0.8c0-1.1-0.5-1.4-1.5-1.4c-1.7,0-4.9,0.2-4.9,0.2l-0.1-2.4
				c0,0,2.8-0.8,5.3-0.8c3.4,0,4.7,1.3,4.7,4.4V35.7z M-507.3,33.7c-0.9,0.1-1.5,0.5-1.5,1.5c0,0.9,0.3,1.5,1.3,1.5
				c1.1,0,2.5-0.4,2.5-0.4v-2.8L-507.3,33.7z"/>
			<path class="st2" d="M-498.2,26.2h3.5v1.4c0,0,2.2-1.3,4.2-1.7v3.5c-2.3,0.4-4.1,1.1-4.1,1.1v8.7h-3.5V26.2z"/>
			<path class="st2" d="M-484.5,29.2v5.3c0,1.3,0,1.9,1.1,1.9c0.7,0,2-0.1,2-0.1l0.2,2.8c0,0-1.7,0.4-2.7,0.4
				c-3.1,0-4.1-1.2-4.1-4.9v-5.4h-1.5v-3h1.5v-3.6h3.5v3.6h3.2v3H-484.5z"/>
			<g>
				<path class="st4" d="M-472.9,21.6h11.4v3.1h-7.9v4.1h6.3V32h-6.3v4.2h7.9v3.1h-11.4V21.6z"/>
				<path class="st4" d="M-454.9,33.4v5.9h-3.6V21.6h6.9c4,0,6.2,1.8,6.2,5.8c0,2.4-1,4.1-2.6,5.1l2.5,6.8h-3.9l-2.1-5.9H-454.9z
					 M-451.6,24.7h-3.3v5.6h3.3c1.8,0,2.5-1.2,2.5-2.8C-449.1,25.8-449.9,24.7-451.6,24.7z"/>
				<path class="st4" d="M-438.8,34.2v5.1h-3.6V21.6h6.5c4.2,0,6.3,2,6.3,6.1c0,4.1-2.1,6.4-6.3,6.4H-438.8z M-435.9,31.1
					c1.8,0,2.7-1.1,2.7-3.3c0-2.2-0.9-3.1-2.7-3.1h-2.9v6.4H-435.9z"/>
			</g>
		</g>
	</g>
</g>
<g>
	<g>
		<g>
			<g>
				<g>
					<path class="st6" d="M-370.5,55.3c-4.9,0-9.8-1.5-13.8-4.4l2.9-4.2c4,2.9,9.2,4.1,14,3.2l0.8,5
						C-367.9,55.2-369.2,55.3-370.5,55.3z"/>
				</g>
			</g>
		</g>
	</g>
	<g>
		<g>
			<g>
				<g>
					<g>
						<g>
							<path class="st7" d="M-387,48.7c-0.5-0.5-1.1-1.1-1.5-1.6c-4.3-4.9-6.4-11.2-6-17.7s3.2-12.5,8.1-16.8c3.4-3,7.5-5,11.9-5.8
								l0.8,5c-3.5,0.6-6.7,2.2-9.4,4.6c-3.8,3.4-6.1,8.1-6.4,13.3c-0.3,5.1,1.4,10.1,4.7,14c0.4,0.4,0.8,0.9,1.2,1.3L-387,48.7z"/>
						</g>
					</g>
				</g>
			</g>
			<g>
				<g>
					<g>
						<g>
							<path class="st8" d="M-370.6,60c-2.3,0-4.6-0.3-6.8-0.8c-15.3-3.8-24.7-19.5-20.9-35.1c3.2-13.3,15.3-22.6,28.8-22.1
								l-0.1,1.9c-12.6-0.5-23.9,8.2-26.9,20.6c-3.5,14.5,5.3,29.2,19.6,32.8c6.1,1.5,12.5,0.8,18.1-2l0.8,1.7
								C-361.9,59-366.2,60-370.6,60z"/>
						</g>
					</g>
				</g>
			</g>
		</g>
		<g>
			<path class="st2" d="M-366.1,24.8c0,0-3.7-0.4-5.2-0.4c-1.9,0-2.8,0.7-2.8,1.9c0,1.1,0.7,1.5,3.7,2.4c3.8,1.2,5,2.3,5,5.2
				c0,3.8-2.6,5.6-6.1,5.6c-2.4,0-5.9-0.8-5.9-0.8l0.4-2.8c0,0,3.5,0.5,5.3,0.5c1.9,0,2.8-0.9,2.8-2.3c0-1.1-0.6-1.6-3.2-2.3
				c-4-1.1-5.5-2.5-5.5-5.3c0-3.7,2.4-5.3,6-5.3c2.4,0,5.8,0.7,5.8,0.7L-366.1,24.8z"/>
			<path class="st2" d="M-362.9,39.2v-13h3.5v0.7c0,0,1.8-1,3.1-1c1.5,0,2.5,0.4,3.3,1.2c0,0,2.4-1.2,4.4-1.2c3.5,0,4.6,2.1,4.6,6.3
				v7h-3.5v-6.9c0-2-0.3-3.3-1.8-3.3c-1,0-2.4,0.5-2.4,0.5s0.1,1.9,0.1,3v6.7h-3.5v-6.7c0-2.3-0.2-3.5-1.8-3.5
				c-1.1,0-2.3,0.5-2.3,0.5v9.7H-362.9z"/>
			<path class="st2" d="M-331.1,35.7c0.1,0.8,0.2,1.1,0.9,1.2l-0.1,2.6c-1.7,0-2.6-0.2-3.7-0.9c0,0-1.9,0.9-3.8,0.9
				c-2.7,0-4-1.5-4-4.3c0-2.9,1.7-3.8,4.6-4l2.8-0.2v-0.8c0-1.1-0.5-1.4-1.5-1.4c-1.7,0-4.9,0.2-4.9,0.2l-0.1-2.4
				c0,0,2.8-0.8,5.3-0.8c3.4,0,4.7,1.3,4.7,4.4V35.7z M-336.9,33.7c-0.9,0.1-1.5,0.5-1.5,1.5c0,0.9,0.3,1.5,1.3,1.5
				c1.1,0,2.5-0.4,2.5-0.4v-2.8L-336.9,33.7z"/>
			<path class="st2" d="M-327.8,26.2h3.5v1.4c0,0,2.2-1.3,4.2-1.7v3.5c-2.3,0.4-4.1,1.1-4.1,1.1v8.7h-3.5V26.2z"/>
			<path class="st2" d="M-314.1,29.2v5.3c0,1.3,0,1.9,1.1,1.9c0.7,0,2-0.1,2-0.1l0.2,2.8c0,0-1.7,0.4-2.7,0.4
				c-3.1,0-4.1-1.2-4.1-4.9v-5.4h-1.5v-3h1.5v-3.6h3.5v3.6h3.2v3H-314.1z"/>
			<path class="st2" d="M-295.6,21.5c3.6,0,5.5,1.3,5.5,4.7c0,2-0.5,3-2,3.9c1.5,0.7,2.3,1.7,2.3,4c0,3.5-2.2,5.1-5.7,5.1h-7V21.5
				H-295.6z M-299,24.6v4.2h3.2c1.4,0,2-0.7,2-2.1c0-1.5-0.7-2.1-2.1-2.1H-299z M-299,31.8v4.3h3.3c1.5,0,2.3-0.4,2.3-2.2
				c0-1.5-0.9-2.1-2.3-2.1H-299z"/>
			<path class="st2" d="M-287.5,30.5c0-6,1.8-9.3,7.3-9.3c5.6,0,7.3,3.3,7.3,9.3c0,6-1.8,9-7.3,9C-285.8,39.5-287.5,36.5-287.5,30.5
				z M-276.6,30.5c0-4.1-0.7-6.1-3.6-6.1s-3.6,2.1-3.6,6.1s0.7,5.9,3.6,5.9S-276.6,34.6-276.6,30.5z"/>
			<path class="st2" d="M-271.6,21.5h13v3.2h-4.7v14.5h-3.6V24.7h-4.7V21.5z"/>
			<path class="st2" d="M-245.7,24.8c0,0-3.7-0.4-5.2-0.4c-1.9,0-2.8,0.7-2.8,1.9c0,1.1,0.7,1.5,3.7,2.4c3.8,1.2,5,2.3,5,5.2
				c0,3.8-2.6,5.6-6.1,5.6c-2.4,0-5.9-0.8-5.9-0.8l0.4-2.8c0,0,3.5,0.5,5.3,0.5c1.9,0,2.8-0.9,2.8-2.3c0-1.1-0.6-1.6-3.2-2.3
				c-4-1.1-5.5-2.5-5.5-5.3c0-3.7,2.4-5.3,6-5.3c2.4,0,5.8,0.7,5.8,0.7L-245.7,24.8z"/>
		</g>
	</g>
</g>
<g>
	<g>
		<path class="st4" d="M-187.5,39.9h-3.5v-0.5c0,0-1.8,0.9-3.1,0.9c-3.9,0-5.1-2.3-5.1-6.9c0-4.8,1.8-6.8,5.4-6.8
			c1,0,2.8,0.4,2.8,0.4v-5.3h3.5V39.9z M-191,36.7v-6.8c0,0-1.4-0.3-2.5-0.3c-1.3,0-2.1,1.1-2.1,3.7c0,2.7,0.5,3.7,2.1,3.7
			C-192.3,37.1-191,36.7-191,36.7z"/>
		<path class="st4" d="M-174.4,36.4c0.1,0.8,0.2,1.1,0.9,1.2l-0.1,2.6c-1.7,0-2.6-0.2-3.7-0.9c0,0-1.9,0.9-3.8,0.9
			c-2.7,0-4-1.5-4-4.3c0-2.9,1.7-3.8,4.6-4l2.8-0.2V31c0-1.1-0.5-1.4-1.5-1.4c-1.7,0-4.9,0.2-4.9,0.2l-0.1-2.4c0,0,2.8-0.8,5.3-0.8
			c3.4,0,4.7,1.3,4.7,4.4V36.4z M-180.2,34.4c-0.9,0.1-1.5,0.5-1.5,1.5c0,0.9,0.3,1.5,1.3,1.5c1.1,0,2.5-0.4,2.5-0.4v-2.8
			L-180.2,34.4z"/>
		<path class="st4" d="M-167,29.9v5.3c0,1.3,0,1.9,1.1,1.9c0.7,0,2-0.1,2-0.1l0.2,2.8c0,0-1.7,0.4-2.7,0.4c-3.1,0-4.1-1.2-4.1-4.9
			v-5.4h-1.5v-3h1.5v-3.6h3.5v3.6h3.2v3H-167z"/>
		<path class="st4" d="M-151.6,36.4c0.1,0.8,0.2,1.1,0.9,1.2l-0.1,2.6c-1.7,0-2.6-0.2-3.7-0.9c0,0-1.9,0.9-3.8,0.9
			c-2.7,0-4-1.5-4-4.3c0-2.9,1.7-3.8,4.6-4l2.8-0.2V31c0-1.1-0.5-1.4-1.5-1.4c-1.7,0-4.9,0.2-4.9,0.2l-0.1-2.4c0,0,2.8-0.8,5.3-0.8
			c3.4,0,4.7,1.3,4.7,4.4V36.4z M-157.5,34.4c-0.9,0.1-1.5,0.5-1.5,1.5c0,0.9,0.3,1.5,1.3,1.5c1.1,0,2.5-0.4,2.5-0.4v-2.8
			L-157.5,34.4z"/>
		<path class="st4" d="M-145.5,22.3h6.8l4,17.7h-3.6l-0.7-3.2h-6.2l-0.7,3.2h-3.6L-145.5,22.3z M-144.5,33.6h4.8l-1.8-8.4h-1.2
			L-144.5,33.6z"/>
		<path class="st4" d="M-123.3,30.2c0,0-3.2-0.4-4.7-0.4c-1.5,0-1.8,0.3-1.8,1c0,0.6,0.5,0.7,2.9,1.2c3,0.5,4.1,1.4,4.1,4.1
			c0,3-2,4.2-5.2,4.2c-1.9,0-5-0.6-5-0.6l0.1-2.9c0,0,3.2,0.4,4.5,0.4c1.7,0,2.1-0.3,2.1-1c0-0.6-0.3-0.8-2.7-1.2
			c-2.8-0.5-4.3-1.1-4.3-4c0-3,2.3-4.2,5-4.2c1.9,0,5,0.7,5,0.7L-123.3,30.2z"/>
		<path class="st4" d="M-111,30.2c0,0-3.2-0.4-4.7-0.4c-1.5,0-1.8,0.3-1.8,1c0,0.6,0.5,0.7,2.9,1.2c3,0.5,4.1,1.4,4.1,4.1
			c0,3-2,4.2-5.2,4.2c-1.9,0-5-0.6-5-0.6l0.1-2.9c0,0,3.2,0.4,4.5,0.4c1.7,0,2.1-0.3,2.1-1c0-0.6-0.3-0.8-2.7-1.2
			c-2.8-0.5-4.3-1.1-4.3-4c0-3,2.3-4.2,5-4.2c1.9,0,5,0.7,5,0.7L-111,30.2z"/>
		<path class="st4" d="M-97.8,37l0.1,2.6c0,0-3,0.7-5.4,0.7c-3.9,0-5.6-2-5.6-6.6c0-4.6,2-7,5.7-7c3.8,0,5.7,2,5.7,5.9l-0.3,2.4
			h-7.6c0,1.6,0.8,2.3,2.6,2.3C-100.5,37.2-97.8,37-97.8,37z M-100.8,32.3c0-2.1-0.6-2.8-2.2-2.8c-1.7,0-2.2,0.8-2.3,2.8H-100.8z"/>
		<path class="st4" d="M-85.5,30.2c0,0-3.2-0.4-4.7-0.4c-1.5,0-1.8,0.3-1.8,1c0,0.6,0.5,0.7,2.9,1.2c3,0.5,4.1,1.4,4.1,4.1
			c0,3-2,4.2-5.2,4.2c-1.9,0-5-0.6-5-0.6l0.1-2.9c0,0,3.2,0.4,4.5,0.4c1.7,0,2.1-0.3,2.1-1c0-0.6-0.3-0.8-2.7-1.2
			c-2.8-0.5-4.3-1.1-4.3-4c0-3,2.3-4.2,5-4.2c1.9,0,5,0.7,5,0.7L-85.5,30.2z"/>
		<path class="st4" d="M-73.2,30.2c0,0-3.2-0.4-4.7-0.4c-1.5,0-1.8,0.3-1.8,1c0,0.6,0.5,0.7,2.9,1.2c3,0.5,4.1,1.4,4.1,4.1
			c0,3-2,4.2-5.2,4.2c-1.9,0-5-0.6-5-0.6l0.1-2.9c0,0,3.2,0.4,4.5,0.4c1.7,0,2.1-0.3,2.1-1c0-0.6-0.3-0.8-2.7-1.2
			c-2.8-0.5-4.3-1.1-4.3-4c0-3,2.3-4.2,5-4.2c1.9,0,5,0.7,5,0.7L-73.2,30.2z"/>
		<path class="st4" d="M-70.3,39.9v-13h3.5v0.7c0,0,1.8-1,3.1-1c1.5,0,2.5,0.4,3.3,1.2c0,0,2.4-1.2,4.4-1.2c3.5,0,4.6,2.1,4.6,6.3v7
			h-3.5V33c0-2-0.3-3.2-1.8-3.2c-1,0-2.4,0.5-2.4,0.5s0.1,1.9,0.1,3v6.7h-3.5v-6.7c0-2.3-0.2-3.5-1.8-3.5c-1.1,0-2.3,0.5-2.3,0.5
			v9.7H-70.3z"/>
		<path class="st4" d="M-38.2,37l0.1,2.6c0,0-3,0.7-5.4,0.7c-3.9,0-5.6-2-5.6-6.6c0-4.6,2-7,5.7-7c3.8,0,5.7,2,5.7,5.9l-0.3,2.4
			h-7.6c0,1.6,0.8,2.3,2.6,2.3C-40.9,37.2-38.2,37-38.2,37z M-41.1,32.3c0-2.1-0.6-2.8-2.2-2.8c-1.7,0-2.2,0.8-2.3,2.8H-41.1z"/>
		<path class="st4" d="M-35.2,39.9v-13h3.5v0.7c0,0,1.8-1,3.3-1c3.6,0,4.6,2.3,4.6,6.3v7h-3.5V33c0-2-0.3-3.2-2-3.2
			c-1.2,0-2.4,0.5-2.4,0.5v9.7H-35.2z"/>
		<path class="st4" d="M-16.8,29.9v5.3c0,1.3,0,1.9,1.1,1.9c0.7,0,2-0.1,2-0.1l0.2,2.8c0,0-1.7,0.4-2.7,0.4c-3.1,0-4.1-1.2-4.1-4.9
			v-5.4h-1.5v-3h1.5v-3.6h3.5v3.6h3.2v3H-16.8z"/>
	</g>
	<g>
		<g>
			<g>
				<g>
					<g>
						<path class="st6" d="M-192,55.3c-4.9,0-9.8-1.5-13.8-4.4l2.9-4.2c4,2.9,9.2,4.1,14,3.2l0.8,5C-189.4,55.2-190.7,55.3-192,55.3
							z"/>
					</g>
				</g>
			</g>
		</g>
		<g>
			<g>
				<g>
					<g>
						<g>
							<path class="st7" d="M-208.5,48.7c-0.5-0.5-1.1-1.1-1.5-1.6c-4.3-4.9-6.4-11.2-6-17.7s3.2-12.5,8.1-16.8
								c3.4-3,7.5-5,11.9-5.8l0.8,5c-3.5,0.6-6.7,2.2-9.4,4.6c-3.8,3.4-6.1,8.1-6.4,13.3c-0.3,5.1,1.4,10.1,4.7,14
								c0.4,0.4,0.8,0.9,1.2,1.3L-208.5,48.7z"/>
						</g>
					</g>
				</g>
			</g>
			<g>
				<g>
					<g>
						<g>
							<path class="st8" d="M-192,60c-2.3,0-4.6-0.3-6.8-0.8c-15.3-3.8-24.7-19.5-20.9-35.1C-216.5,10.8-204.4,1.5-191,2l-0.1,1.9
								c-12.6-0.5-23.9,8.2-26.9,20.6c-3.5,14.5,5.3,29.2,19.6,32.8c6.1,1.5,12.5,0.8,18.1-2l0.8,1.7C-183.4,59-187.7,60-192,60z"/>
						</g>
					</g>
				</g>
			</g>
		</g>
	</g>
</g>
<g>
	<g>
		<g>
			<path class="st2" d="M35.6,24.8c0,0-3.7-0.4-5.2-0.4c-1.9,0-2.8,0.7-2.8,1.9c0,1.1,0.7,1.5,3.7,2.4c3.8,1.2,5,2.3,5,5.2
				c0,3.8-2.6,5.6-6.1,5.6c-2.4,0-5.9-0.8-5.9-0.8l0.4-2.8c0,0,3.5,0.5,5.3,0.5c1.9,0,2.8-0.9,2.8-2.3c0-1.1-0.6-1.6-3.2-2.3
				c-4-1.1-5.5-2.5-5.5-5.3c0-3.7,2.4-5.3,6-5.3c2.4,0,5.8,0.7,5.8,0.7L35.6,24.8z"/>
			<path class="st2" d="M38.8,39.3v-13h3.5V27c0,0,1.8-1,3.1-1c1.5,0,2.5,0.4,3.3,1.2c0,0,2.4-1.2,4.4-1.2c3.5,0,4.6,2.1,4.6,6.3v7
				H54v-6.9c0-2-0.3-3.3-1.8-3.3c-1,0-2.4,0.5-2.4,0.5s0.1,2,0.1,3v6.7h-3.5v-6.7c0-2.3-0.2-3.5-1.8-3.5c-1.1,0-2.3,0.5-2.3,0.5v9.7
				H38.8z"/>
			<path class="st2" d="M70.6,35.7c0.1,0.8,0.2,1.1,0.9,1.2l-0.1,2.6c-1.7,0-2.6-0.2-3.7-0.9c0,0-1.9,0.9-3.8,0.9
				c-2.7,0-4-1.5-4-4.3c0-2.9,1.7-3.8,4.6-4l2.8-0.2v-0.8c0-1.1-0.5-1.4-1.5-1.4c-1.7,0-4.9,0.2-4.9,0.2l-0.1-2.4
				c0,0,2.8-0.8,5.3-0.8c3.4,0,4.7,1.3,4.7,4.4V35.7z M64.7,33.8c-0.9,0.1-1.5,0.5-1.5,1.5c0,0.9,0.3,1.5,1.3,1.5
				c1.1,0,2.5-0.4,2.5-0.4v-2.8L64.7,33.8z"/>
			<path class="st2" d="M73.9,26.3h3.5v1.4c0,0,2.2-1.3,4.2-1.7v3.5c-2.3,0.4-4.1,1.1-4.1,1.1v8.7h-3.5V26.3z"/>
			<path class="st2" d="M87.6,29.2v5.3c0,1.3,0,1.9,1.1,1.9c0.7,0,2-0.1,2-0.1l0.2,2.8c0,0-1.7,0.4-2.7,0.4c-3.1,0-4.1-1.2-4.1-4.9
				v-5.4h-1.5v-3h1.5v-3.6h3.5v3.6h3.2v3H87.6z"/>
			<path class="st2" d="M101.9,21.5h6.8l4,17.7h-3.6l-0.7-3.2h-6.2l-0.7,3.2H98L101.9,21.5z M102.9,32.9h4.8l-1.8-8.4h-1.2
				L102.9,32.9z"/>
			<path class="st2" d="M114.8,26.2h3.5v0.7c0,0,1.7-1,3-1c3.4,0,5.1,1.9,5.1,6.7c0,5.5-1.9,6.9-5.9,6.9c-1,0-2.2-0.2-2.2-0.2v5.4
				h-3.5V26.2z M118.3,29.5v6.8c0,0,1.2,0.2,1.9,0.2c2.1,0,2.6-1.1,2.6-3.9c0-2.6-0.9-3.6-2.3-3.6C119.5,29,118.3,29.5,118.3,29.5z"
				/>
			<path class="st2" d="M128.9,26.2h3.5v0.7c0,0,1.7-1,3-1c3.4,0,5.1,1.9,5.1,6.7c0,5.5-1.9,6.9-5.9,6.9c-1,0-2.2-0.2-2.2-0.2v5.4
				h-3.5V26.2z M132.4,29.5v6.8c0,0,1.2,0.2,1.9,0.2c2.1,0,2.6-1.1,2.6-3.9c0-2.6-0.9-3.6-2.3-3.6C133.6,29,132.4,29.5,132.4,29.5z"
				/>
			<path class="st2" d="M156,21.5c3.6,0,5.5,1.3,5.5,4.7c0,2-0.5,3-2,3.9c1.5,0.7,2.3,1.7,2.3,4c0,3.5-2.2,5.1-5.7,5.1h-7V21.5H156z
				 M152.7,24.6v4.2h3.2c1.4,0,2-0.7,2-2.1c0-1.5-0.7-2.1-2.1-2.1H152.7z M152.7,31.8v4.3h3.3c1.5,0,2.3-0.4,2.3-2.2
				c0-1.5-0.9-2.1-2.3-2.1H152.7z"/>
			<path class="st2" d="M175.8,26.2v13h-3.5v-0.7c0,0-1.9,1-3.3,1c-3.8,0-4.6-2.1-4.6-6.5v-6.8h3.5v6.9c0,2.3,0.1,3.3,1.8,3.3
				c1.3,0,2.5-0.5,2.5-0.5v-9.7H175.8z"/>
			<path class="st2" d="M179,21h3.5v3.5H179V21z M179,26.2h3.5v13H179V26.2z"/>
			<path class="st2" d="M185.9,21h3.5v18.2h-3.5V21z"/>
			<path class="st2" d="M203.8,39.2h-3.5v-0.5c0,0-1.8,0.9-3.1,0.9c-3.9,0-5.1-2.3-5.1-6.9c0-4.8,1.8-6.8,5.4-6.8
				c1,0,2.8,0.4,2.8,0.4V21h3.5V39.2z M200.3,36v-6.8c0,0-1.4-0.3-2.5-0.3c-1.3,0-2.1,1.1-2.1,3.7c0,2.7,0.5,3.7,2.1,3.7
				C199,36.4,200.3,36,200.3,36z"/>
			<path class="st2" d="M217.3,36.2l0.1,2.6c0,0-3,0.7-5.4,0.7c-3.9,0-5.6-2-5.6-6.6c0-4.6,2-7,5.7-7c3.8,0,5.7,2,5.7,5.9l-0.3,2.4
				h-7.6c0,1.6,0.8,2.3,2.6,2.3C214.6,36.5,217.3,36.2,217.3,36.2z M214.3,31.5c0-2.1-0.6-2.8-2.2-2.8c-1.7,0-2.2,0.8-2.3,2.8H214.3
				z"/>
			<path class="st2" d="M220.3,26.2h3.5v1.4c0,0,2.2-1.3,4.2-1.7v3.5c-2.3,0.4-4.1,1.1-4.1,1.1v8.7h-3.5V26.2z"/>
		</g>
	</g>
	<g>
		<g>
			<g>
				<g>
					<g>
						<path class="st6" d="M31.2,55.3c-4.9,0-9.8-1.5-13.8-4.4l2.9-4.2c4,2.9,9.2,4.1,14,3.2l0.8,5C33.8,55.2,32.5,55.3,31.2,55.3z"
							/>
					</g>
				</g>
			</g>
		</g>
		<g>
			<g>
				<g>
					<g>
						<g>
							<path class="st7" d="M14.7,48.7c-0.5-0.5-1.1-1.1-1.5-1.6c-4.3-4.9-6.4-11.2-6-17.7s3.2-12.5,8.1-16.8c3.4-3,7.5-5,11.9-5.8
								l0.8,5c-3.5,0.6-6.7,2.2-9.4,4.6c-3.8,3.4-6.1,8.1-6.4,13.3c-0.3,5.1,1.4,10.1,4.7,14c0.4,0.4,0.8,0.9,1.2,1.3L14.7,48.7z"/>
						</g>
					</g>
				</g>
			</g>
			<g>
				<g>
					<g>
						<g>
							<path class="st8" d="M31.1,60c-2.3,0-4.6-0.3-6.8-0.8C9,55.4-0.3,39.6,3.4,24.1C6.6,10.8,18.8,1.5,32.2,2l-0.1,1.9
								C19.5,3.4,8.2,12.1,5.2,24.5c-3.5,14.5,5.3,29.2,19.6,32.8c6.1,1.5,12.5,0.8,18.1-2l0.8,1.7C39.8,59,35.5,60,31.1,60z"/>
						</g>
					</g>
				</g>
			</g>
		</g>
	</g>
</g>
<g>
	<g>
		<path class="st2" d="M-952.4,28.3c-0.4,0-0.8,0.1-1.2,0.2c-0.3,0.2-0.6,0.4-0.8,0.6c-0.2,0.3-0.4,0.6-0.5,0.9
			c-0.1,0.3-0.2,0.7-0.2,1l0,0.2h5.4l0-0.1c0-0.3-0.1-0.7-0.2-1c-0.1-0.3-0.3-0.6-0.5-0.9c-0.2-0.3-0.5-0.5-0.8-0.6
			C-951.5,28.4-951.9,28.3-952.4,28.3 M-951.8,39.5c-1.2,0-2.2-0.2-3.1-0.5c-0.9-0.4-1.6-0.8-2.2-1.5c-0.6-0.6-1-1.4-1.3-2.2
			c-0.3-0.8-0.4-1.8-0.4-2.8c0-1.2,0.2-2.2,0.5-3.1c0.4-0.9,0.8-1.6,1.4-2.2c0.6-0.6,1.3-1,2-1.3c0.8-0.3,1.5-0.5,2.3-0.5
			c1.9,0,3.4,0.6,4.4,1.7c1.1,1.2,1.6,2.9,1.6,5.1c0,0.2,0,0.5,0,0.7c0,0.2,0,0.4,0,0.6h-8.7l0,0.2c0.1,0.8,0.5,1.5,1.2,2
			c0.7,0.5,1.6,0.7,2.7,0.7c0.7,0,1.4-0.1,2.1-0.2c0.6-0.1,1.1-0.3,1.5-0.4l0.5,2.9c-0.2,0.1-0.4,0.2-0.7,0.3
			c-0.3,0.1-0.7,0.2-1.1,0.3c-0.4,0.1-0.9,0.1-1.3,0.2C-950.8,39.5-951.3,39.5-951.8,39.5 M-961.7,38.5c1-0.7,1.4-1.7,1.4-2.9
			c0-0.6-0.1-1-0.2-1.5c-0.1-0.4-0.3-0.8-0.6-1.1c-0.3-0.3-0.7-0.7-1.3-1c-0.5-0.3-1.2-0.6-2.1-0.9c-0.4-0.2-0.8-0.3-1-0.4
			c-0.3-0.1-0.5-0.3-0.6-0.4c-0.2-0.1-0.3-0.3-0.4-0.4c-0.1-0.1-0.1-0.3-0.1-0.5c0-0.8,0.6-1.2,1.9-1.2c0.7,0,1.3,0.1,1.8,0.2
			c0.5,0.1,0.9,0.2,1.3,0.4l0.6-2.7c-0.4-0.2-1-0.3-1.7-0.4c-0.7-0.1-1.5-0.2-2.3-0.2c-1.6,0-2.9,0.4-3.8,1.1
			c-0.9,0.7-1.4,1.7-1.4,2.9c0,0.6,0.1,1.2,0.3,1.6c0.2,0.4,0.4,0.8,0.8,1.2c0.3,0.3,0.7,0.6,1.2,0.8c0.5,0.2,1,0.5,1.6,0.7
			c0.8,0.3,1.4,0.6,1.7,0.8c0.4,0.3,0.6,0.6,0.6,0.9c0,0.5-0.2,0.8-0.5,0.9c-0.3,0.1-0.8,0.2-1.5,0.2c-0.7,0-1.4-0.1-2.1-0.2
			c-0.6-0.1-1.3-0.3-1.9-0.6l-0.6,2.9c0.3,0.1,0.8,0.3,1.5,0.5c0.8,0.2,1.8,0.3,3,0.3C-964,39.5-962.6,39.2-961.7,38.5 M-972.5,39.1
			v-7.6c0-0.9-0.1-1.8-0.3-2.5c-0.2-0.7-0.5-1.4-0.9-1.9c-0.4-0.5-1-1-1.7-1.2c-0.7-0.3-1.7-0.4-2.8-0.4c-1.1,0-2.2,0.1-3.2,0.2
			c-1,0.2-1.8,0.3-2.4,0.5v13h3.5V28.6l0.1,0c0.2,0,0.5-0.1,0.8-0.1c0.3,0,0.6,0,0.9,0c0.9,0,1.6,0.3,1.9,0.8
			c0.3,0.5,0.5,1.4,0.5,2.7v7.1H-972.5z M-992.1,28.3c-0.4,0-0.8,0.1-1.2,0.2c-0.3,0.2-0.6,0.4-0.8,0.6c-0.2,0.3-0.4,0.6-0.5,0.9
			c-0.1,0.3-0.2,0.7-0.3,1l0,0.2h5.4l0-0.1c0-0.3-0.1-0.7-0.2-1c-0.1-0.3-0.3-0.6-0.5-0.9c-0.2-0.3-0.5-0.5-0.8-0.6
			C-991.2,28.4-991.6,28.3-992.1,28.3 M-991.4,39.5c-1.2,0-2.2-0.2-3.1-0.5c-0.9-0.4-1.6-0.8-2.2-1.5c-0.6-0.6-1-1.4-1.3-2.2
			c-0.3-0.8-0.4-1.8-0.4-2.8c0-1.2,0.2-2.2,0.5-3.1c0.4-0.9,0.8-1.6,1.4-2.2c0.6-0.6,1.3-1,2-1.3c0.8-0.3,1.5-0.5,2.3-0.5
			c1.9,0,3.4,0.6,4.4,1.7c1.1,1.2,1.6,2.9,1.6,5.1c0,0.2,0,0.5,0,0.7c0,0.2,0,0.4,0,0.6h-8.7l0,0.2c0.1,0.8,0.5,1.5,1.2,2
			c0.7,0.5,1.6,0.7,2.7,0.7c0.7,0,1.4-0.1,2.1-0.2c0.6-0.1,1.1-0.3,1.5-0.4l0.5,2.9c-0.2,0.1-0.4,0.2-0.7,0.3
			c-0.3,0.1-0.7,0.2-1.1,0.3c-0.4,0.1-0.9,0.1-1.3,0.2C-990.5,39.5-991,39.5-991.4,39.5 M-998.7,39.1l-0.7-3.1h-8.5l0.1-0.2
			c0.6-1,1.3-2.1,2.1-3.3c0.8-1.1,1.6-2.3,2.4-3.3c0.8-1.1,1.6-2.1,2.3-3c0.7-0.9,1.4-1.6,1.9-2.2v-2.6h-13l0.7,3.1h7.4l-0.2,0.2
			c-0.7,0.8-1.4,1.7-2.2,2.8c-0.8,1-1.5,2.1-2.3,3.2c-0.7,1.1-1.5,2.2-2.2,3.3c-0.7,1.1-1.3,2.1-1.7,2.9v2.3H-998.7z M-1019.5,33.2
			c-0.4,0-0.7,0-1,0.1c-0.3,0-0.6,0.1-0.9,0.3c-0.3,0.1-0.5,0.3-0.6,0.5c-0.1,0.2-0.2,0.5-0.2,0.9c0,0.7,0.2,1.1,0.7,1.4
			c0.4,0.2,1,0.4,1.7,0.4c0.4,0,0.7,0,1.1,0c0.3,0,0.6,0,0.8-0.1l0.1,0v-3.2l-0.1,0c-0.2,0-0.4-0.1-0.7-0.1
			C-1018.9,33.2-1019.2,33.2-1019.5,33.2 M-1020.1,39.4c-0.9,0-1.6-0.1-2.3-0.2c-0.7-0.2-1.3-0.4-1.8-0.7c-0.5-0.3-0.9-0.8-1.1-1.3
			c-0.3-0.6-0.4-1.2-0.4-2c0-0.8,0.2-1.4,0.5-2c0.3-0.5,0.7-1,1.2-1.3c0.5-0.3,1.1-0.6,1.8-0.7c0.7-0.1,1.4-0.2,2.1-0.2
			c0.5,0,0.9,0,1.3,0.1c0.4,0,0.7,0.1,0.9,0.2l0.2,0.1v-0.6c0-0.7-0.2-1.3-0.6-1.7c-0.4-0.4-1.1-0.6-2.1-0.6c-0.7,0-1.3,0-1.9,0.1
			c-0.6,0.1-1.1,0.2-1.5,0.4l-0.4-2.8c0.2-0.1,0.4-0.1,0.7-0.2c0.3-0.1,0.7-0.1,1.1-0.2c0.4-0.1,0.8-0.1,1.2-0.2
			c0.4,0,0.9-0.1,1.3-0.1c1.1,0,2,0.1,2.8,0.4c0.7,0.3,1.3,0.6,1.7,1.1c0.4,0.5,0.7,1,0.9,1.7c0.2,0.7,0.3,1.4,0.3,2.3v8
			c-0.5,0.1-1.3,0.3-2.2,0.4C-1017.5,39.3-1018.7,39.4-1020.1,39.4 M-1027.9,39.3c0.5-0.1,1-0.3,1.4-0.4l-0.5-2.7
			c-0.3,0.1-0.7,0.2-1.1,0.3c-0.4,0.1-0.9,0.1-1.3,0.1c-0.9,0-1.5-0.3-1.8-0.8c-0.3-0.5-0.4-1.2-0.4-2v-5h4.6v-2.9h-4.6v-3l-3.5,0.6
			v10.3c0,0.9,0.1,1.7,0.2,2.4c0.2,0.7,0.4,1.3,0.8,1.8c0.4,0.5,0.9,0.9,1.6,1.2c0.7,0.3,1.5,0.4,2.5,0.4
			C-1029.2,39.5-1028.5,39.4-1027.9,39.3 M-1042.9,33.2c-0.4,0-0.7,0-1,0.1c-0.3,0-0.6,0.1-0.9,0.3c-0.3,0.1-0.5,0.3-0.6,0.5
			c-0.2,0.2-0.2,0.5-0.2,0.9c0,0.7,0.2,1.1,0.7,1.4c0.4,0.2,1,0.4,1.7,0.4c0.4,0,0.7,0,1.1,0c0.3,0,0.6,0,0.8-0.1l0.1,0v-3.2l-0.1,0
			c-0.2,0-0.4-0.1-0.7-0.1C-1042.3,33.2-1042.6,33.2-1042.9,33.2 M-1043.5,39.4c-0.9,0-1.6-0.1-2.3-0.2c-0.7-0.2-1.3-0.4-1.8-0.7
			c-0.5-0.3-0.9-0.8-1.1-1.3c-0.3-0.6-0.4-1.2-0.4-2c0-0.8,0.2-1.4,0.5-2c0.3-0.5,0.7-1,1.2-1.3c0.5-0.3,1.1-0.6,1.8-0.7
			c0.7-0.1,1.4-0.2,2.1-0.2c0.5,0,0.9,0,1.3,0.1c0.4,0,0.7,0.1,0.9,0.2l0.2,0.1v-0.6c0-0.7-0.2-1.3-0.6-1.7
			c-0.4-0.4-1.1-0.6-2.1-0.6c-0.7,0-1.3,0-1.9,0.1c-0.6,0.1-1.1,0.2-1.5,0.4l-0.4-2.8c0.2-0.1,0.4-0.1,0.7-0.2
			c0.3-0.1,0.7-0.1,1.1-0.2c0.4-0.1,0.8-0.1,1.2-0.2c0.4,0,0.9-0.1,1.3-0.1c1.1,0,2,0.1,2.8,0.4c0.7,0.3,1.3,0.6,1.7,1.1
			c0.4,0.5,0.7,1,0.9,1.7c0.2,0.7,0.3,1.4,0.3,2.3v8c-0.5,0.1-1.3,0.3-2.2,0.4C-1040.9,39.3-1042.1,39.4-1043.5,39.4 M-1056.9,28.4
			c-1.9,0-2.9,1.3-2.9,3.9c0,1.2,0.3,2.2,0.8,3c0.6,0.8,1.4,1.2,2.5,1.2c0.3,0,0.7,0,1,0c0.3,0,0.5-0.1,0.7-0.1l0.1,0v-7.2l-0.1,0
			c-0.3-0.2-0.6-0.3-1-0.4C-1056.1,28.5-1056.5,28.4-1056.9,28.4 M-1056.5,39.5c-1.1,0-2.1-0.2-2.9-0.5c-0.8-0.3-1.6-0.8-2.2-1.4
			c-0.6-0.6-1-1.3-1.3-2.2c-0.3-0.9-0.5-1.8-0.5-2.9c0-1.1,0.1-2.1,0.4-3c0.3-0.9,0.7-1.6,1.2-2.2c0.5-0.6,1.1-1.1,1.8-1.4
			c0.7-0.3,1.6-0.5,2.5-0.5c0.5,0,1,0.1,1.4,0.2c0.4,0.1,0.8,0.2,1.2,0.4l0.2,0.1v-5.9l3.5-0.6v19.1c-0.3,0.1-0.7,0.2-1.1,0.3
			c-0.4,0.1-0.9,0.2-1.4,0.2c-0.5,0.1-1,0.1-1.5,0.2C-1055.5,39.5-1056,39.5-1056.5,39.5"/>
	</g>
	<g>
		<g>
			<g>
				<g>
					<path class="st6" d="M-1072.3,48.7c-0.5-0.5-1.1-1.1-1.5-1.6c-4.3-4.9-6.4-11.2-6-17.7c0.4-6.5,3.2-12.5,8.1-16.8
						c3.4-3,7.5-5,11.9-5.8l0.8,5c-3.5,0.6-6.7,2.2-9.4,4.6c-3.8,3.4-6.1,8.1-6.4,13.3c-0.3,5.1,1.4,10.1,4.7,14
						c0.4,0.4,0.8,0.9,1.2,1.3L-1072.3,48.7z"/>
				</g>
			</g>
		</g>
	</g>
	<g>
		<g>
			<g>
				<g>
					<path class="st6" d="M-1055.7,55.3c-4.9,0-9.8-1.5-13.8-4.4l2.9-4.2c4,2.9,9.2,4.1,14,3.2l0.8,5
						C-1053.1,55.2-1054.4,55.3-1055.7,55.3z"/>
				</g>
			</g>
		</g>
	</g>
	<g>
		<g>
			<g>
				<g>
					<path class="st6" d="M-1055.8,60c-2.3,0-4.6-0.3-6.8-0.8c-15.3-3.8-24.7-19.5-20.9-35.1c3.2-13.3,15.3-22.6,28.8-22.1l-0.1,1.9
						c-12.6-0.5-23.9,8.2-26.9,20.6c-3.5,14.5,5.3,29.2,19.6,32.8c6.1,1.5,12.5,0.8,18.1-2l0.8,1.7C-1047.2,59-1051.5,60-1055.8,60z
						"/>
				</g>
			</g>
		</g>
	</g>
</g>
<g>
	<g>
		<path class="st9" d="M-892.3,50.2l-5.7-5.8l16.5-16.9c1.6-1.6,4.1-1.6,5.7,0l0,0c1.6,1.6,1.6,4.2,0,5.8L-892.3,50.2z"/>
		<path class="st9" d="M-878.6,47.4l-7.9,0.7l9.7-10c1-1,2.6-1,3.6,0l0,0c1,1,1,2.6,0,3.7L-878.6,47.4z"/>
		<path class="st9" d="M-897.3,39.8l0.2-7.5l7.2-7.4c1-1,2.6-1,3.6,0l0,0c1,1,1,2.6,0,3.7L-897.3,39.8z"/>
		<path class="st10" d="M-868.1,32.7l0,12c0,0.9-0.7,1.7-1.7,1.7h-24.6c-0.9,0-1.7-0.8-1.7-1.7l0-37.5c0-0.9,0.7-1.7,1.7-1.7h24.6
			c0.9,0,1.7,0.8,1.7,1.7l0,3.4h3.4V5.5c0-1.9-1.5-3.4-3.3-3.4h-28.1c-1.8,0-3.3,1.5-3.3,3.4v51.1c0,1.9,1.5,3.4,3.3,3.4h28.1
			c1.8,0,3.3-1.5,3.3-3.4V32.7H-868.1z M-882.1,58.4c-2.7,0-4.9-2.2-4.9-5c0-2.7,2.2-5,4.9-5c2.7,0,4.9,2.2,4.9,5
			C-877.3,56.1-879.4,58.4-882.1,58.4z"/>
		<ellipse class="st9" cx="-869.4" cy="21.9" rx="4.1" ry="4.2"/>
		<path class="st9" d="M-859.7,15.2c0,1.4-1.1,2.5-2.5,2.5c-1.4,0-2.5-1.1-2.5-2.5c0-1.4,1.1-2.5,2.5-2.5
			C-860.8,12.7-859.7,13.8-859.7,15.2z"/>
		<path class="st9" d="M-857.7,23.3c0,1.4-1.1,2.5-2.5,2.5s-2.5-1.1-2.5-2.5c0-1.4,1.1-2.5,2.5-2.5S-857.7,21.9-857.7,23.3z"/>
		<ellipse class="st9" cx="-856.7" cy="9.8" rx="1.6" ry="1.6"/>
	</g>
	<g>
		<g>
			<path class="st2" d="M-847,34h6.7l3.9,17.8h-3.5l-0.7-3.2h-6.1l-0.7,3.2h-3.5L-847,34z M-846.1,45.4h4.8l-1.8-8.5h-1.2
				L-846.1,45.4z"/>
			<path class="st2" d="M-834.4,38.7h3.4v0.7c0,0,1.7-1,2.9-1c3.4,0,5.1,1.9,5.1,6.8c0,5.6-1.9,7-5.8,7c-0.9,0-2.1-0.2-2.1-0.2v5.4
				h-3.4V38.7z M-830.9,42.1v6.9c0,0,1.2,0.2,1.9,0.2c2.1,0,2.6-1.2,2.6-3.9c0-2.6-0.9-3.6-2.2-3.6
				C-829.7,41.5-830.9,42.1-830.9,42.1z"/>
			<path class="st2" d="M-820.4,38.7h3.4v0.7c0,0,1.7-1,2.9-1c3.4,0,5.1,1.9,5.1,6.8c0,5.6-1.9,7-5.8,7c-0.9,0-2.1-0.2-2.1-0.2v5.4
				h-3.4V38.7z M-817,42.1v6.9c0,0,1.2,0.2,1.9,0.2c2.1,0,2.6-1.2,2.6-3.9c0-2.6-0.9-3.6-2.2-3.6C-815.8,41.5-817,42.1-817,42.1z"/>
			<path class="st2" d="M-800.5,34h6l3.1,13l3.1-13h6v17.8h-3.5V38h-0.4l-3.4,13h-3.5l-3.4-13h-0.4v13.8h-3.5V34z"/>
		</g>
	</g>
</g>
</svg>
