<?xml version="1.0" encoding="utf-8"?>
<!-- Generator: Adobe Illustrator 24.1.3, SVG Export Plug-In . SVG Version: 6.00 Build 0)  -->
<svg version="1.1" id="Layer_1" xmlns="http://www.w3.org/2000/svg" xmlns:xlink="http://www.w3.org/1999/xlink" x="0px" y="0px"
	 viewBox="0 0 159.2 62" style="enable-background:new 0 0 159.2 62;" xml:space="preserve">
<style type="text/css">
	.st0{fill:#CC2D57;}
	.st1{fill:#161A45;}
	.st2{fill:#172952;}
	.st3{fill:#03958B;}
	.st4{fill:#162A51;}
	.st5{fill:#9D1C2E;}
	.st6{fill:#519BC4;}
	.st7{fill:#08968C;}
	.st8{fill:#9D1C2D;}
	.st9{fill:#137CC1;}
	.st10{fill:#48BCEC;}
</style>
<g>
	<g>
		<g>
			<g>
				<g>
					<g>
						<path class="st0" d="M-1025.4,48.7c-0.5-0.5-1.1-1.1-1.5-1.6c-4.3-4.9-6.4-11.2-6-17.7c0.4-6.5,3.2-12.5,8.1-16.8
							c3.4-3,7.5-5,11.9-5.8l0.8,5c-3.5,0.6-6.7,2.2-9.4,4.6c-3.8,3.4-6.1,8.1-6.4,13.3c-0.3,5.1,1.4,10.1,4.7,14
							c0.4,0.4,0.8,0.9,1.2,1.3L-1025.4,48.7z"/>
					</g>
				</g>
			</g>
		</g>
		<g>
			<g>
				<g>
					<g>
						<path class="st0" d="M-1008.9,55.3c-4.9,0-9.8-1.5-13.8-4.4l2.9-4.2c4,2.9,9.2,4.1,14,3.2l0.8,5
							C-1006.3,55.2-1007.6,55.3-1008.9,55.3z"/>
					</g>
				</g>
			</g>
		</g>
		<g>
			<g>
				<g>
					<g>
						<path class="st0" d="M-1008.9,60c-2.3,0-4.6-0.3-6.8-0.8c-15.3-3.8-24.7-19.5-20.9-35.1c3.2-13.3,15.3-22.6,28.8-22.1
							l-0.1,1.9c-12.6-0.5-23.9,8.2-26.9,20.6c-3.5,14.5,5.3,29.2,19.6,32.8c6.1,1.5,12.5,0.8,18.1-2l0.8,1.7
							C-1000.3,59-1004.6,60-1008.9,60z"/>
					</g>
				</g>
			</g>
		</g>
		<g>
			<path class="st1" d="M-1009.6,39.5c-1.1,0-2.1-0.2-2.9-0.5c-0.8-0.3-1.6-0.8-2.2-1.4c-0.6-0.6-1-1.3-1.3-2.2
				c-0.3-0.9-0.5-1.8-0.5-2.9c0-1.1,0.1-2.1,0.4-3c0.3-0.9,0.7-1.6,1.2-2.2c0.5-0.6,1.1-1.1,1.8-1.4c0.7-0.3,1.6-0.5,2.5-0.5
				c0.5,0,1,0.1,1.4,0.2c0.4,0.1,0.8,0.2,1.2,0.4l0.2,0.1v-5.9l3.5-0.6v19.2c-0.3,0.1-0.7,0.2-1.1,0.3c-0.4,0.1-0.9,0.2-1.4,0.2
				c-0.5,0.1-1,0.1-1.5,0.2C-1008.7,39.5-1009.1,39.5-1009.6,39.5 M-1010,28.4c-1.9,0-2.9,1.3-2.9,3.9c0,1.2,0.3,2.2,0.8,3
				c0.6,0.8,1.4,1.2,2.5,1.2c0.3,0,0.7,0,1,0c0.3,0,0.5-0.1,0.7-0.1l0.1,0V29l-0.1,0c-0.3-0.2-0.6-0.3-1-0.4
				C-1009.2,28.5-1009.6,28.4-1010,28.4 M-996.6,39.4c-0.9,0-1.6-0.1-2.3-0.2c-0.7-0.2-1.3-0.4-1.8-0.7c-0.5-0.3-0.9-0.8-1.1-1.3
				c-0.3-0.6-0.4-1.2-0.4-2.1c0-0.8,0.2-1.4,0.5-2c0.3-0.5,0.7-1,1.2-1.3c0.5-0.3,1.1-0.6,1.8-0.7c0.7-0.1,1.4-0.2,2.1-0.2
				c0.5,0,0.9,0,1.3,0.1c0.4,0,0.7,0.1,0.9,0.2l0.2,0.1v-0.6c0-0.7-0.2-1.3-0.6-1.7c-0.4-0.4-1.1-0.6-2.2-0.6c-0.7,0-1.3,0-1.9,0.1
				c-0.6,0.1-1.1,0.2-1.5,0.4l-0.4-2.8c0.2-0.1,0.4-0.1,0.7-0.2c0.3-0.1,0.7-0.1,1.1-0.2c0.4-0.1,0.8-0.1,1.2-0.2
				c0.4,0,0.9-0.1,1.3-0.1c1.1,0,2,0.1,2.8,0.4c0.7,0.3,1.3,0.6,1.8,1.1c0.4,0.5,0.7,1,0.9,1.7c0.2,0.7,0.3,1.4,0.3,2.3v8
				c-0.5,0.1-1.3,0.3-2.2,0.4C-994,39.3-995.2,39.4-996.6,39.4 M-996,33.2c-0.4,0-0.7,0-1,0.1c-0.3,0-0.6,0.1-0.9,0.3
				c-0.3,0.1-0.5,0.3-0.6,0.5c-0.2,0.2-0.2,0.5-0.2,0.9c0,0.7,0.2,1.1,0.7,1.4c0.4,0.2,1,0.4,1.7,0.4c0.4,0,0.7,0,1.1,0
				c0.3,0,0.6,0,0.8-0.1l0.1,0v-3.2l-0.1,0c-0.2,0-0.4-0.1-0.7-0.1C-995.4,33.2-995.7,33.2-996,33.2 M-981,39.2
				c0.5-0.1,1-0.3,1.4-0.4l-0.5-2.7c-0.3,0.1-0.7,0.2-1.1,0.3c-0.4,0.1-0.9,0.1-1.3,0.1c-0.9,0-1.5-0.3-1.8-0.8
				c-0.3-0.5-0.4-1.2-0.4-2v-5h4.6v-3h-4.6v-3l-3.5,0.6v10.3c0,0.9,0.1,1.7,0.2,2.4c0.2,0.7,0.4,1.3,0.8,1.8
				c0.4,0.5,0.9,0.9,1.6,1.2c0.7,0.3,1.5,0.4,2.5,0.4C-982.3,39.5-981.6,39.4-981,39.2 M-973.1,39.4c-0.9,0-1.6-0.1-2.3-0.2
				c-0.7-0.2-1.3-0.4-1.8-0.7c-0.5-0.3-0.9-0.8-1.1-1.3c-0.3-0.6-0.4-1.2-0.4-2.1c0-0.8,0.2-1.4,0.5-2c0.3-0.5,0.7-1,1.2-1.3
				c0.5-0.3,1.1-0.6,1.8-0.7c0.7-0.1,1.4-0.2,2.1-0.2c0.5,0,0.9,0,1.3,0.1c0.4,0,0.7,0.1,0.9,0.2l0.2,0.1v-0.6
				c0-0.7-0.2-1.3-0.6-1.7c-0.4-0.4-1.1-0.6-2.2-0.6c-0.7,0-1.3,0-1.9,0.1c-0.6,0.1-1.1,0.2-1.5,0.4l-0.4-2.8
				c0.2-0.1,0.4-0.1,0.7-0.2c0.3-0.1,0.7-0.1,1.1-0.2c0.4-0.1,0.8-0.1,1.2-0.2c0.4,0,0.9-0.1,1.3-0.1c1.1,0,2,0.1,2.8,0.4
				c0.7,0.3,1.3,0.6,1.8,1.1c0.4,0.5,0.7,1,0.9,1.7c0.2,0.7,0.3,1.4,0.3,2.3v8c-0.5,0.1-1.3,0.3-2.2,0.4
				C-970.6,39.3-971.8,39.4-973.1,39.4 M-972.5,33.2c-0.4,0-0.7,0-1,0.1c-0.3,0-0.6,0.1-0.9,0.3c-0.3,0.1-0.5,0.3-0.6,0.5
				c-0.2,0.2-0.2,0.5-0.2,0.9c0,0.7,0.2,1.1,0.7,1.4c0.4,0.2,1,0.4,1.7,0.4c0.4,0,0.7,0,1.1,0c0.3,0,0.6,0,0.8-0.1l0.1,0v-3.2
				l-0.1,0c-0.2,0-0.4-0.1-0.7-0.1C-972,33.2-972.3,33.2-972.5,33.2 M-951.7,39.1l-0.7-3.1h-8.5l0.1-0.2c0.6-1,1.3-2.1,2.1-3.3
				c0.8-1.1,1.6-2.3,2.4-3.3c0.8-1.1,1.6-2.1,2.3-3c0.7-0.9,1.4-1.6,1.9-2.2v-2.6h-13l0.7,3.1h7.4l-0.2,0.2
				c-0.7,0.8-1.4,1.7-2.2,2.8c-0.8,1-1.5,2.1-2.3,3.2c-0.7,1.1-1.5,2.2-2.2,3.3c-0.7,1.1-1.3,2.1-1.7,2.9v2.3H-951.7z M-945.5,39.4
				c-0.9,0-1.6-0.1-2.3-0.2c-0.7-0.2-1.3-0.4-1.8-0.7c-0.5-0.3-0.9-0.8-1.1-1.3c-0.3-0.6-0.4-1.2-0.4-2.1c0-0.8,0.2-1.4,0.5-2
				c0.3-0.5,0.7-1,1.2-1.3c0.5-0.3,1.1-0.6,1.8-0.7c0.7-0.1,1.4-0.2,2.1-0.2c0.5,0,0.9,0,1.3,0.1c0.4,0,0.7,0.1,0.9,0.2l0.2,0.1
				v-0.6c0-0.7-0.2-1.3-0.6-1.7c-0.4-0.4-1.1-0.6-2.2-0.6c-0.7,0-1.3,0-1.9,0.1c-0.6,0.1-1.1,0.2-1.5,0.4l-0.4-2.8
				c0.2-0.1,0.4-0.1,0.7-0.2c0.3-0.1,0.7-0.1,1.1-0.2c0.4-0.1,0.8-0.1,1.2-0.2c0.4,0,0.9-0.1,1.3-0.1c1.1,0,2,0.1,2.8,0.4
				c0.7,0.3,1.3,0.6,1.8,1.1c0.4,0.5,0.7,1,0.9,1.7c0.2,0.7,0.3,1.4,0.3,2.3v8c-0.5,0.1-1.3,0.3-2.2,0.4
				C-943,39.3-944.1,39.4-945.5,39.4 M-944.9,33.2c-0.4,0-0.7,0-1,0.1c-0.3,0-0.6,0.1-0.9,0.3c-0.3,0.1-0.5,0.3-0.6,0.5
				c-0.2,0.2-0.2,0.5-0.2,0.9c0,0.7,0.2,1.1,0.7,1.4c0.4,0.2,1,0.4,1.7,0.4c0.4,0,0.7,0,1.1,0c0.3,0,0.6,0,0.8-0.1l0.1,0v-3.2
				l-0.1,0c-0.2,0-0.4-0.1-0.7-0.1C-944.3,33.2-944.6,33.2-944.9,33.2 M-937.1,44V26.1c0.3-0.1,0.7-0.2,1.1-0.3
				c0.4-0.1,0.9-0.2,1.4-0.2c0.5-0.1,1-0.1,1.5-0.2c0.5,0,1-0.1,1.4-0.1c1.1,0,2.1,0.2,2.9,0.5c0.8,0.3,1.6,0.8,2.2,1.4
				c0.6,0.6,1,1.3,1.3,2.2c0.3,0.9,0.5,1.8,0.5,2.9c0,1-0.1,2-0.4,2.9c-0.3,0.8-0.6,1.6-1.1,2.2c-0.5,0.6-1.1,1.1-1.8,1.4
				c-0.7,0.3-1.5,0.5-2.5,0.5c-0.5,0-1-0.1-1.5-0.2c-0.5-0.1-0.9-0.2-1.3-0.4l-0.2-0.1V44H-937.1z M-931.7,28.4c-0.3,0-0.7,0-1,0
				c-0.3,0-0.5,0.1-0.7,0.1l-0.1,0v7.2l0.1,0c0.3,0.2,0.6,0.3,1,0.4c0.4,0.1,0.8,0.2,1.2,0.2c1.9,0,2.9-1.3,2.9-3.9
				c0-1.2-0.3-2.2-0.8-3C-929.8,28.8-930.6,28.4-931.7,28.4"/>
		</g>
	</g>
</g>
<g>
	<g>
		<path class="st2" d="M-744.7,39.1v-7.6c0-0.9-0.1-1.8-0.3-2.5c-0.2-0.7-0.5-1.4-0.9-1.9c-0.4-0.5-1-0.9-1.8-1.2
			c-0.7-0.3-1.7-0.4-2.8-0.4c-1.1,0-2.2,0.1-3.2,0.2c-1,0.2-1.8,0.3-2.4,0.5v12.9h3.5V28.6l0.1,0c0.2,0,0.5-0.1,0.8-0.1
			c0.3,0,0.6,0,0.9,0c0.9,0,1.6,0.3,1.9,0.8c0.3,0.5,0.5,1.4,0.5,2.7v7.1H-744.7z M-764.3,28.3c-0.4,0-0.8,0.1-1.2,0.2
			c-0.3,0.2-0.6,0.4-0.8,0.6c-0.2,0.3-0.4,0.6-0.5,0.9c-0.1,0.3-0.2,0.7-0.2,1l0,0.2h5.4l0-0.1c0-0.3-0.1-0.7-0.2-1
			c-0.1-0.3-0.3-0.6-0.5-0.9c-0.2-0.3-0.5-0.5-0.8-0.6C-763.5,28.4-763.9,28.3-764.3,28.3 M-763.7,39.5c-1.2,0-2.2-0.2-3.1-0.5
			c-0.9-0.4-1.6-0.8-2.2-1.5c-0.6-0.6-1-1.4-1.3-2.2c-0.3-0.8-0.4-1.8-0.4-2.8c0-1.2,0.2-2.2,0.5-3.1c0.4-0.9,0.8-1.6,1.4-2.2
			c0.6-0.6,1.3-1,2-1.3c0.8-0.3,1.5-0.5,2.3-0.5c1.9,0,3.4,0.6,4.4,1.7c1.1,1.2,1.6,2.9,1.6,5.1c0,0.2,0,0.5,0,0.7
			c0,0.2,0,0.4,0,0.6h-8.7l0,0.2c0.1,0.8,0.5,1.5,1.2,2c0.7,0.5,1.6,0.7,2.7,0.7c0.7,0,1.4-0.1,2.1-0.2c0.6-0.1,1.1-0.3,1.5-0.4
			l0.5,2.9c-0.2,0.1-0.4,0.2-0.7,0.3c-0.3,0.1-0.7,0.2-1.1,0.3c-0.4,0.1-0.9,0.1-1.3,0.2C-762.8,39.5-763.2,39.5-763.7,39.5
			 M-771,39.1l-0.7-3.1h-8.5l0.1-0.2c0.6-1,1.3-2.1,2.1-3.3c0.8-1.1,1.6-2.3,2.4-3.3c0.8-1.1,1.6-2.1,2.3-3c0.7-0.9,1.4-1.6,1.9-2.2
			v-2.6h-13l0.7,3.1h7.4l-0.2,0.2c-0.7,0.8-1.4,1.7-2.2,2.8c-0.8,1-1.5,2.1-2.3,3.2c-0.7,1.1-1.5,2.2-2.2,3.3
			c-0.7,1.1-1.3,2.1-1.7,2.9v2.3H-771z M-791.7,33.3c-0.4,0-0.7,0-1,0.1c-0.3,0-0.6,0.1-0.9,0.3c-0.3,0.1-0.5,0.3-0.6,0.5
			c-0.2,0.2-0.2,0.5-0.2,0.9c0,0.7,0.2,1.1,0.7,1.4c0.4,0.2,1,0.4,1.7,0.4c0.4,0,0.7,0,1.1,0c0.3,0,0.6,0,0.8-0.1l0.1,0v-3.2l-0.1,0
			c-0.2,0-0.4-0.1-0.7-0.1C-791.2,33.3-791.5,33.3-791.7,33.3 M-792.4,39.4c-0.9,0-1.6-0.1-2.3-0.2c-0.7-0.2-1.3-0.4-1.8-0.7
			c-0.5-0.3-0.9-0.8-1.1-1.3c-0.3-0.5-0.4-1.2-0.4-2c0-0.8,0.2-1.4,0.5-2c0.3-0.5,0.7-1,1.2-1.3c0.5-0.3,1.1-0.6,1.8-0.7
			c0.7-0.1,1.4-0.2,2.1-0.2c0.5,0,0.9,0,1.3,0.1c0.4,0,0.7,0.1,0.9,0.2l0.2,0.1v-0.5c0-0.7-0.2-1.3-0.6-1.7
			c-0.4-0.4-1.1-0.6-2.1-0.6c-0.7,0-1.3,0-1.9,0.1c-0.6,0.1-1.1,0.2-1.5,0.4l-0.4-2.8c0.2-0.1,0.4-0.1,0.7-0.2
			c0.3-0.1,0.7-0.1,1.1-0.2c0.4-0.1,0.8-0.1,1.2-0.2c0.4,0,0.9-0.1,1.3-0.1c1.1,0,2,0.1,2.8,0.4c0.7,0.3,1.3,0.6,1.8,1.1
			c0.4,0.5,0.7,1,0.9,1.7c0.2,0.7,0.3,1.4,0.3,2.3v7.9c-0.5,0.1-1.3,0.3-2.2,0.4C-789.8,39.3-791,39.4-792.4,39.4 M-800.2,39.3
			c0.5-0.1,1-0.3,1.4-0.4l-0.5-2.7c-0.3,0.1-0.7,0.2-1.1,0.3c-0.4,0.1-0.9,0.1-1.3,0.1c-0.9,0-1.5-0.3-1.8-0.8
			c-0.3-0.5-0.4-1.2-0.4-2v-4.9h4.6v-2.9h-4.6v-2.9l-3.5,0.6v10.3c0,0.9,0.1,1.7,0.2,2.4c0.2,0.7,0.4,1.3,0.8,1.8
			c0.4,0.5,0.9,0.9,1.6,1.2c0.7,0.3,1.5,0.4,2.5,0.4C-801.5,39.5-800.8,39.4-800.2,39.3 M-815.2,33.3c-0.4,0-0.7,0-1,0.1
			c-0.3,0-0.6,0.1-0.9,0.3c-0.3,0.1-0.5,0.3-0.6,0.5c-0.2,0.2-0.2,0.5-0.2,0.9c0,0.7,0.2,1.1,0.7,1.4c0.4,0.2,1,0.4,1.7,0.4
			c0.4,0,0.7,0,1.1,0c0.3,0,0.6,0,0.8-0.1l0.1,0v-3.2l-0.1,0c-0.2,0-0.4-0.1-0.7-0.1C-814.6,33.3-814.9,33.3-815.2,33.3
			 M-815.8,39.4c-0.9,0-1.6-0.1-2.3-0.2c-0.7-0.2-1.3-0.4-1.8-0.7c-0.5-0.3-0.9-0.8-1.1-1.3c-0.3-0.5-0.4-1.2-0.4-2
			c0-0.8,0.2-1.4,0.5-2c0.3-0.5,0.7-1,1.2-1.3c0.5-0.3,1.1-0.6,1.8-0.7c0.7-0.1,1.4-0.2,2.1-0.2c0.5,0,0.9,0,1.3,0.1
			c0.4,0,0.7,0.1,0.9,0.2l0.2,0.1v-0.5c0-0.7-0.2-1.3-0.6-1.7c-0.4-0.4-1.1-0.6-2.1-0.6c-0.7,0-1.3,0-1.9,0.1
			c-0.6,0.1-1.1,0.2-1.5,0.4l-0.4-2.8c0.2-0.1,0.4-0.1,0.7-0.2c0.3-0.1,0.7-0.1,1.1-0.2c0.4-0.1,0.8-0.1,1.2-0.2
			c0.4,0,0.9-0.1,1.3-0.1c1.1,0,2,0.1,2.8,0.4c0.7,0.3,1.3,0.6,1.8,1.1c0.4,0.5,0.7,1,0.9,1.7c0.2,0.7,0.3,1.4,0.3,2.3v7.9
			c-0.5,0.1-1.3,0.3-2.2,0.4C-813.2,39.3-814.4,39.4-815.8,39.4 M-829.2,28.5c-1.9,0-2.9,1.3-2.9,3.9c0,1.2,0.3,2.2,0.8,3
			c0.6,0.8,1.4,1.1,2.5,1.1c0.3,0,0.7,0,1,0c0.3,0,0.5-0.1,0.7-0.1l0.1,0v-7.2l-0.1,0c-0.3-0.2-0.6-0.3-1-0.4
			C-828.4,28.5-828.8,28.5-829.2,28.5 M-828.8,39.5c-1.1,0-2.1-0.2-2.9-0.5c-0.8-0.3-1.6-0.8-2.2-1.4c-0.6-0.6-1-1.3-1.3-2.2
			c-0.3-0.9-0.5-1.8-0.5-2.9c0-1.1,0.1-2.1,0.4-3c0.3-0.9,0.7-1.6,1.2-2.2c0.5-0.6,1.1-1.1,1.8-1.4c0.7-0.3,1.6-0.5,2.5-0.5
			c0.5,0,1,0.1,1.4,0.2c0.4,0.1,0.8,0.2,1.2,0.4l0.2,0.1v-5.9l3.5-0.6v19.1c-0.3,0.1-0.7,0.2-1.1,0.3c-0.4,0.1-0.9,0.2-1.4,0.2
			c-0.5,0.1-1,0.1-1.5,0.2C-827.9,39.5-828.3,39.5-828.8,39.5"/>
	</g>
	<g>
		<g>
			<g>
				<g>
					<path class="st3" d="M-844.6,48.7c-0.5-0.5-1.1-1.1-1.5-1.6c-4.3-4.9-6.4-11.2-6-17.7c0.4-6.5,3.2-12.5,8.1-16.8
						c3.4-3,7.5-5,11.9-5.8l0.8,5c-3.5,0.6-6.7,2.2-9.4,4.6c-3.8,3.4-6.1,8.1-6.4,13.3c-0.3,5.1,1.4,10.1,4.7,14
						c0.4,0.4,0.8,0.9,1.2,1.3L-844.6,48.7z"/>
				</g>
			</g>
		</g>
	</g>
	<g>
		<g>
			<g>
				<g>
					<path class="st3" d="M-828.1,55.3c-4.9,0-9.8-1.5-13.8-4.4l2.9-4.2c4,2.9,9.2,4.1,14,3.2l0.8,5
						C-825.4,55.2-826.8,55.3-828.1,55.3z"/>
				</g>
			</g>
		</g>
	</g>
	<g>
		<g>
			<g>
				<g>
					<path class="st3" d="M-828.1,60c-2.3,0-4.6-0.3-6.8-0.8c-15.3-3.8-24.7-19.5-20.9-35.1C-852.6,10.8-840.5,1.5-827,2l-0.1,1.9
						c-12.6-0.5-23.9,8.2-26.9,20.6c-3.5,14.5,5.3,29.2,19.6,32.8c6.1,1.5,12.5,0.8,18.1-2l0.8,1.7C-819.5,59-823.8,60-828.1,60z"/>
				</g>
			</g>
		</g>
	</g>
</g>
<rect x="-685.3" y="29.5" class="st3" width="2.6" height="2.9"/>
<g>
	<g>
		<g>
			<path class="st4" d="M-267.3,21.7h6.8l4,17.7h-3.6l-0.7-3.2h-6.2l-0.7,3.2h-3.6L-267.3,21.7z M-266.3,33.1h4.8l-1.8-8.4h-1.2
				L-266.3,33.1z"/>
			<path class="st4" d="M-243.6,39.4h-3.5v-0.5c0,0-1.8,0.9-3.1,0.9c-3.9,0-5.1-2.3-5.1-6.9c0-4.8,1.8-6.8,5.4-6.8
				c1,0,2.8,0.4,2.8,0.4v-5.3h3.5V39.4z M-247.1,36.2v-6.8c0,0-1.4-0.3-2.5-0.3c-1.3,0-2.1,1.1-2.1,3.7c0,2.7,0.5,3.7,2.1,3.7
				C-248.4,36.6-247.1,36.2-247.1,36.2z"/>
			<path class="st4" d="M-240.3,39.4v-13h3.5v0.7c0,0,1.8-1,3.1-1c1.5,0,2.5,0.4,3.3,1.2c0,0,2.4-1.2,4.4-1.2c3.5,0,4.6,2.1,4.6,6.3
				v7h-3.5v-6.9c0-2-0.3-3.3-1.8-3.3c-1,0-2.4,0.5-2.4,0.5s0.1,1.9,0.1,3v6.7h-3.5v-6.7c0-2.3-0.2-3.5-1.8-3.5
				c-1.1,0-2.3,0.5-2.3,0.5v9.7H-240.3z"/>
			<path class="st4" d="M-218.5,21.2h3.5v3.5h-3.5V21.2z M-218.5,26.4h3.5v13h-3.5V26.4z"/>
			<path class="st4" d="M-211.8,39.4v-13h3.5v0.7c0,0,1.8-1,3.3-1c3.6,0,4.6,2.3,4.6,6.3v7h-3.5v-6.9c0-2-0.3-3.3-2-3.3
				c-1.2,0-2.4,0.5-2.4,0.5v9.7H-211.8z"/>
		</g>
	</g>
	<g>
		<path class="st3" d="M-281.5,16.8c-3.8,0.7-7.2,3-9.4,6.3c-4.5,6.7-2.8,15.8,3.7,20.2c2.4,1.6,5.1,2.5,7.9,2.5
			c0.9,0,1.8-0.1,2.7-0.3c0.8-0.2,1.6-0.4,2.4-0.7l-2-4.9c-0.5,0.2-0.9,0.3-1.4,0.4c-2.4,0.5-4.7,0-6.7-1.4c-4.2-2.8-5.2-8.7-2.3-13
			c1.4-2.1,3.6-3.5,6-4c2.1-0.4,4.2-0.1,6,0.9l2.7-4.5C-274.8,16.7-278.1,16.2-281.5,16.8z"/>
		<path class="st5" d="M-269.6,55.9l-5.1,1.5l-2.1-4.8l-0.7,0.1c-2.1,0.2-4.3,0.1-6.4-0.4l-0.7-0.1l-2.9,4.6l-5-2.2l1.5-5.3
			l-0.5-0.4c-1.7-1.2-3.2-2.7-4.5-4.4l-0.4-0.6l-5.3,1.7l-2.3-5l4.5-3.2l-0.2-0.6c-0.5-2-0.7-4.1-0.6-6.3l0-0.7l-5.1-2.1l1.4-5.4
			l5.5,0.5l0.3-0.6c0.5-1,1-2,1.7-3c0.5-0.8,1.1-1.6,1.8-2.3l0.4-0.5l-2.5-5l4.5-3.3l3.8,3.9l0.6-0.3c1.9-0.9,3.9-1.6,6-1.9l0.6-0.1
			l1.2-5.5l5.4,0.4l0.4,5.4l0.7,0.2c1.8,0.5,3.6,1.2,5.3,2.2l1-1.7l0,0c-1.6-0.9-3.3-1.7-5.1-2.2l-0.4-5.7l-8.8-0.6l-1.3,5.8
			c-1.8,0.3-3.6,0.9-5.2,1.6l-4-4.2l-7.1,5.3l2.7,5.3c-0.5,0.6-1,1.3-1.5,2c-0.6,0.8-1.1,1.7-1.5,2.6l-5.8-0.5l-2.2,8.6l5.4,2.3
			c0,1.8,0.2,3.7,0.6,5.5l-4.8,3.4l3.8,8l5.6-1.8c1.1,1.4,2.5,2.7,3.9,3.8l-1.6,5.6l8,3.6l3.1-4.9c1.8,0.3,3.7,0.5,5.6,0.3l2.3,5.1
			l6.9-2L-269.6,55.9z"/>
	</g>
</g>
<g>
	<g>
		<g>
			<g>
				<g>
					<path class="st6" d="M-139.2,55.3c-4.9,0-9.8-1.5-13.8-4.4l2.9-4.2c4,2.9,9.2,4.1,14,3.2l0.8,5
						C-136.6,55.2-137.9,55.3-139.2,55.3z"/>
				</g>
			</g>
		</g>
	</g>
	<g>
		<g>
			<g>
				<g>
					<g>
						<g>
							<path class="st7" d="M-155.7,48.7c-0.5-0.5-1.1-1.1-1.5-1.6c-4.3-4.9-6.4-11.2-6-17.7s3.2-12.5,8.1-16.8
								c3.4-3,7.5-5,11.9-5.8l0.8,5c-3.5,0.6-6.7,2.2-9.4,4.6c-3.8,3.4-6.1,8.1-6.4,13.3c-0.3,5.1,1.4,10.1,4.7,14
								c0.4,0.4,0.8,0.9,1.2,1.3L-155.7,48.7z"/>
						</g>
					</g>
				</g>
			</g>
			<g>
				<g>
					<g>
						<g>
							<path class="st8" d="M-139.3,60c-2.3,0-4.6-0.3-6.8-0.8c-15.3-3.8-24.7-19.5-20.9-35.1c3.2-13.3,15.3-22.6,28.8-22.1
								l-0.1,1.9c-12.6-0.5-23.9,8.2-26.9,20.6c-3.5,14.5,5.3,29.2,19.6,32.8c6.1,1.5,12.5,0.8,18.1-2l0.8,1.7
								C-130.6,59-134.9,60-139.3,60z"/>
						</g>
					</g>
				</g>
			</g>
		</g>
		<g>
			<path class="st2" d="M-134.8,24.8c0,0-3.7-0.4-5.2-0.4c-1.9,0-2.8,0.7-2.8,1.9c0,1.1,0.7,1.5,3.7,2.4c3.8,1.2,5,2.3,5,5.2
				c0,3.8-2.6,5.6-6.1,5.6c-2.4,0-5.9-0.8-5.9-0.8l0.4-2.8c0,0,3.5,0.5,5.3,0.5c1.9,0,2.8-0.9,2.8-2.3c0-1.1-0.6-1.6-3.2-2.3
				c-4-1.1-5.5-2.5-5.5-5.3c0-3.7,2.4-5.3,6-5.3c2.4,0,5.8,0.7,5.8,0.7L-134.8,24.8z"/>
			<path class="st2" d="M-131.6,39.2v-13h3.5v0.7c0,0,1.8-1,3.1-1c1.5,0,2.5,0.4,3.3,1.2c0,0,2.4-1.2,4.4-1.2c3.5,0,4.6,2.1,4.6,6.3
				v7h-3.5v-6.9c0-2-0.3-3.3-1.8-3.3c-1,0-2.4,0.5-2.4,0.5s0.1,1.9,0.1,3v6.7h-3.5v-6.7c0-2.3-0.2-3.5-1.8-3.5
				c-1.1,0-2.3,0.5-2.3,0.5v9.7H-131.6z"/>
			<path class="st2" d="M-99.8,35.7c0.1,0.8,0.2,1.1,0.9,1.2l-0.1,2.6c-1.7,0-2.6-0.2-3.7-0.9c0,0-1.9,0.9-3.8,0.9
				c-2.7,0-4-1.5-4-4.3c0-2.9,1.7-3.8,4.6-4l2.8-0.2v-0.8c0-1.1-0.5-1.4-1.5-1.4c-1.7,0-4.9,0.2-4.9,0.2l-0.1-2.4
				c0,0,2.8-0.8,5.3-0.8c3.4,0,4.7,1.3,4.7,4.4V35.7z M-105.7,33.7c-0.9,0.1-1.5,0.5-1.5,1.5c0,0.9,0.3,1.5,1.3,1.5
				c1.1,0,2.5-0.4,2.5-0.4v-2.8L-105.7,33.7z"/>
			<path class="st2" d="M-96.5,26.2h3.5v1.4c0,0,2.2-1.3,4.2-1.7v3.5c-2.3,0.4-4.1,1.1-4.1,1.1v8.7h-3.5V26.2z"/>
			<path class="st2" d="M-82.8,29.2v5.3c0,1.3,0,1.9,1.1,1.9c0.7,0,2-0.1,2-0.1l0.2,2.8c0,0-1.7,0.4-2.7,0.4c-3.1,0-4.1-1.2-4.1-4.9
				v-5.4h-1.5v-3h1.5v-3.6h3.5v3.6h3.2v3H-82.8z"/>
			<g>
				<path class="st4" d="M-71.2,21.6h11.4v3.1h-7.9v4.1h6.3V32h-6.3v4.2h7.9v3.1h-11.4V21.6z"/>
				<path class="st4" d="M-53.2,33.4v5.9h-3.6V21.6h6.9c4,0,6.2,1.8,6.2,5.8c0,2.4-1,4.1-2.6,5.1l2.5,6.8h-3.9l-2.1-5.9H-53.2z
					 M-50,24.7h-3.3v5.6h3.3c1.8,0,2.5-1.2,2.5-2.8C-47.4,25.8-48.2,24.7-50,24.7z"/>
				<path class="st4" d="M-37.1,34.2v5.1h-3.6V21.6h6.5c4.2,0,6.3,2,6.3,6.1c0,4.1-2.1,6.4-6.3,6.4H-37.1z M-34.2,31.1
					c1.8,0,2.7-1.1,2.7-3.3c0-2.2-0.9-3.1-2.7-3.1h-2.9v6.4H-34.2z"/>
			</g>
		</g>
	</g>
</g>
<g>
	<g>
		<g>
			<g>
				<g>
					<path class="st6" d="M31.2,55.3c-4.9,0-9.8-1.5-13.8-4.4l2.9-4.2c4,2.9,9.2,4.1,14,3.2l0.8,5C33.8,55.2,32.5,55.3,31.2,55.3z"
						/>
				</g>
			</g>
		</g>
	</g>
	<g>
		<g>
			<g>
				<g>
					<g>
						<g>
							<path class="st7" d="M14.7,48.7c-0.5-0.5-1.1-1.1-1.5-1.6c-4.3-4.9-6.4-11.2-6-17.7s3.2-12.5,8.1-16.8c3.4-3,7.5-5,11.9-5.8
								l0.8,5c-3.5,0.6-6.7,2.2-9.4,4.6c-3.8,3.4-6.1,8.1-6.4,13.3c-0.3,5.1,1.4,10.1,4.7,14c0.4,0.4,0.8,0.9,1.2,1.3L14.7,48.7z"/>
						</g>
					</g>
				</g>
			</g>
			<g>
				<g>
					<g>
						<g>
							<path class="st8" d="M31.1,60c-2.3,0-4.6-0.3-6.8-0.8C9,55.4-0.3,39.6,3.4,24.1C6.6,10.8,18.8,1.5,32.2,2l-0.1,1.9
								C19.5,3.4,8.2,12.1,5.2,24.5c-3.5,14.5,5.3,29.2,19.6,32.8c6.1,1.5,12.5,0.8,18.1-2l0.8,1.7C39.8,59,35.5,60,31.1,60z"/>
						</g>
					</g>
				</g>
			</g>
		</g>
		<g>
			<path class="st2" d="M35.6,24.8c0,0-3.7-0.4-5.2-0.4c-1.9,0-2.8,0.7-2.8,1.9c0,1.1,0.7,1.5,3.7,2.4c3.8,1.2,5,2.3,5,5.2
				c0,3.8-2.6,5.6-6.1,5.6c-2.4,0-5.9-0.8-5.9-0.8l0.4-2.8c0,0,3.5,0.5,5.3,0.5c1.9,0,2.8-0.9,2.8-2.3c0-1.1-0.6-1.6-3.2-2.3
				c-4-1.1-5.5-2.5-5.5-5.3c0-3.7,2.4-5.3,6-5.3c2.4,0,5.8,0.7,5.8,0.7L35.6,24.8z"/>
			<path class="st2" d="M38.8,39.2v-13h3.5v0.7c0,0,1.8-1,3.1-1c1.5,0,2.5,0.4,3.3,1.2c0,0,2.4-1.2,4.4-1.2c3.5,0,4.6,2.1,4.6,6.3v7
				h-3.5v-6.9c0-2-0.3-3.3-1.8-3.3c-1,0-2.4,0.5-2.4,0.5s0.1,1.9,0.1,3v6.7h-3.5v-6.7c0-2.3-0.2-3.5-1.8-3.5c-1.1,0-2.3,0.5-2.3,0.5
				v9.7H38.8z"/>
			<path class="st2" d="M70.6,35.7c0.1,0.8,0.2,1.1,0.9,1.2l-0.1,2.6c-1.7,0-2.6-0.2-3.7-0.9c0,0-1.9,0.9-3.8,0.9
				c-2.7,0-4-1.5-4-4.3c0-2.9,1.7-3.8,4.6-4l2.8-0.2v-0.8c0-1.1-0.5-1.4-1.5-1.4c-1.7,0-4.9,0.2-4.9,0.2l-0.1-2.4
				c0,0,2.8-0.8,5.3-0.8c3.4,0,4.7,1.3,4.7,4.4V35.7z M64.7,33.7c-0.9,0.1-1.5,0.5-1.5,1.5c0,0.9,0.3,1.5,1.3,1.5
				c1.1,0,2.5-0.4,2.5-0.4v-2.8L64.7,33.7z"/>
			<path class="st2" d="M73.9,26.2h3.5v1.4c0,0,2.2-1.3,4.2-1.7v3.5c-2.3,0.4-4.1,1.1-4.1,1.1v8.7h-3.5V26.2z"/>
			<path class="st2" d="M87.6,29.2v5.3c0,1.3,0,1.9,1.1,1.9c0.7,0,2-0.1,2-0.1l0.2,2.8c0,0-1.7,0.4-2.7,0.4c-3.1,0-4.1-1.2-4.1-4.9
				v-5.4h-1.5v-3h1.5v-3.6h3.5v3.6h3.2v3H87.6z"/>
			<path class="st2" d="M106,21.5c3.6,0,5.5,1.3,5.5,4.7c0,2-0.5,3-2,3.9c1.5,0.7,2.3,1.7,2.3,4c0,3.5-2.2,5.1-5.7,5.1h-7V21.5H106z
				 M102.7,24.6v4.2h3.2c1.4,0,2-0.7,2-2.1c0-1.5-0.7-2.1-2.1-2.1H102.7z M102.7,31.8v4.3h3.3c1.5,0,2.3-0.4,2.3-2.2
				c0-1.5-0.9-2.1-2.3-2.1H102.7z"/>
			<path class="st2" d="M114.1,30.5c0-6,1.8-9.3,7.3-9.3c5.6,0,7.3,3.3,7.3,9.3c0,6-1.8,9-7.3,9C115.9,39.5,114.1,36.5,114.1,30.5z
				 M125.1,30.5c0-4.1-0.7-6.1-3.6-6.1s-3.6,2.1-3.6,6.1s0.7,5.9,3.6,5.9S125.1,34.6,125.1,30.5z"/>
			<path class="st2" d="M130.1,21.5h13v3.2h-4.7v14.5h-3.6V24.7h-4.7V21.5z"/>
			<path class="st2" d="M156,24.8c0,0-3.7-0.4-5.2-0.4c-1.9,0-2.8,0.7-2.8,1.9c0,1.1,0.7,1.5,3.7,2.4c3.8,1.2,5,2.3,5,5.2
				c0,3.8-2.6,5.6-6.1,5.6c-2.4,0-5.9-0.8-5.9-0.8l0.4-2.8c0,0,3.5,0.5,5.3,0.5c1.9,0,2.8-0.9,2.8-2.3c0-1.1-0.6-1.6-3.2-2.3
				c-4-1.1-5.5-2.5-5.5-5.3c0-3.7,2.4-5.3,6-5.3c2.4,0,5.8,0.7,5.8,0.7L156,24.8z"/>
		</g>
	</g>
</g>
<g>
	<g>
		<path class="st4" d="M214.1,39.9h-3.5v-0.5c0,0-1.8,0.9-3.1,0.9c-3.9,0-5.1-2.3-5.1-6.9c0-4.8,1.8-6.8,5.4-6.8
			c1,0,2.8,0.4,2.8,0.4v-5.3h3.5V39.9z M210.6,36.7v-6.8c0,0-1.4-0.3-2.5-0.3c-1.3,0-2.1,1.1-2.1,3.7c0,2.7,0.5,3.7,2.1,3.7
			C209.3,37.1,210.6,36.7,210.6,36.7z"/>
		<path class="st4" d="M227.3,36.4c0.1,0.8,0.2,1.1,0.9,1.2l-0.1,2.6c-1.7,0-2.6-0.2-3.7-0.9c0,0-1.9,0.9-3.8,0.9
			c-2.7,0-4-1.5-4-4.3c0-2.9,1.7-3.8,4.6-4l2.8-0.2V31c0-1.1-0.5-1.4-1.5-1.4c-1.7,0-4.9,0.2-4.9,0.2l-0.1-2.4c0,0,2.8-0.8,5.3-0.8
			c3.4,0,4.7,1.3,4.7,4.4V36.4z M221.5,34.4c-0.9,0.1-1.5,0.5-1.5,1.5c0,0.9,0.3,1.5,1.3,1.5c1.1,0,2.5-0.4,2.5-0.4v-2.8L221.5,34.4
			z"/>
		<path class="st4" d="M234.6,29.9v5.3c0,1.3,0,1.9,1.1,1.9c0.7,0,2-0.1,2-0.1l0.2,2.8c0,0-1.7,0.4-2.7,0.4c-3.1,0-4.1-1.2-4.1-4.9
			v-5.4h-1.5v-3h1.5v-3.6h3.5v3.6h3.2v3H234.6z"/>
		<path class="st4" d="M250.1,36.4c0.1,0.8,0.2,1.1,0.9,1.2l-0.1,2.6c-1.7,0-2.6-0.2-3.7-0.9c0,0-1.9,0.9-3.8,0.9
			c-2.7,0-4-1.5-4-4.3c0-2.9,1.7-3.8,4.6-4l2.8-0.2V31c0-1.1-0.5-1.4-1.5-1.4c-1.7,0-4.9,0.2-4.9,0.2l-0.1-2.4c0,0,2.8-0.8,5.3-0.8
			c3.4,0,4.7,1.3,4.7,4.4V36.4z M244.2,34.4c-0.9,0.1-1.5,0.5-1.5,1.5c0,0.9,0.3,1.5,1.3,1.5c1.1,0,2.5-0.4,2.5-0.4v-2.8L244.2,34.4
			z"/>
		<path class="st4" d="M256.2,22.3h6.8l4,17.7h-3.6l-0.7-3.2h-6.2l-0.7,3.2h-3.6L256.2,22.3z M257.2,33.6h4.8l-1.8-8.4H259
			L257.2,33.6z"/>
		<path class="st4" d="M278.4,30.2c0,0-3.2-0.4-4.7-0.4c-1.5,0-1.8,0.3-1.8,1c0,0.6,0.5,0.7,2.9,1.2c3,0.5,4.1,1.4,4.1,4.1
			c0,3-2,4.2-5.2,4.2c-1.9,0-5-0.6-5-0.6l0.1-2.9c0,0,3.2,0.4,4.5,0.4c1.7,0,2.1-0.3,2.1-1c0-0.6-0.3-0.8-2.7-1.2
			c-2.8-0.5-4.3-1.1-4.3-4c0-3,2.3-4.2,5-4.2c1.9,0,5,0.7,5,0.7L278.4,30.2z"/>
		<path class="st4" d="M290.6,30.2c0,0-3.2-0.4-4.7-0.4c-1.5,0-1.8,0.3-1.8,1c0,0.6,0.5,0.7,2.9,1.2c3,0.5,4.1,1.4,4.1,4.1
			c0,3-2,4.2-5.2,4.2c-1.9,0-5-0.6-5-0.6l0.1-2.9c0,0,3.2,0.4,4.5,0.4c1.7,0,2.1-0.3,2.1-1c0-0.6-0.3-0.8-2.7-1.2
			c-2.8-0.5-4.3-1.1-4.3-4c0-3,2.3-4.2,5-4.2c1.9,0,5,0.7,5,0.7L290.6,30.2z"/>
		<path class="st4" d="M303.9,37l0.1,2.6c0,0-3,0.7-5.4,0.7c-3.9,0-5.6-2-5.6-6.6c0-4.6,2-7,5.7-7c3.8,0,5.7,2,5.7,5.9l-0.3,2.4
			h-7.6c0,1.6,0.8,2.3,2.6,2.3C301.2,37.2,303.9,37,303.9,37z M300.9,32.3c0-2.1-0.6-2.8-2.2-2.8c-1.7,0-2.2,0.8-2.3,2.8H300.9z"/>
		<path class="st4" d="M316.2,30.2c0,0-3.2-0.4-4.7-0.4c-1.5,0-1.8,0.3-1.8,1c0,0.6,0.5,0.7,2.9,1.2c3,0.5,4.1,1.4,4.1,4.1
			c0,3-2,4.2-5.2,4.2c-1.9,0-5-0.6-5-0.6l0.1-2.9c0,0,3.2,0.4,4.5,0.4c1.7,0,2.1-0.3,2.1-1c0-0.6-0.3-0.8-2.7-1.2
			c-2.8-0.5-4.3-1.1-4.3-4c0-3,2.3-4.2,5-4.2c1.9,0,5,0.7,5,0.7L316.2,30.2z"/>
		<path class="st4" d="M328.4,30.2c0,0-3.2-0.4-4.7-0.4c-1.5,0-1.8,0.3-1.8,1c0,0.6,0.5,0.7,2.9,1.2c3,0.5,4.1,1.4,4.1,4.1
			c0,3-2,4.2-5.2,4.2c-1.9,0-5-0.6-5-0.6l0.1-2.9c0,0,3.2,0.4,4.5,0.4c1.7,0,2.1-0.3,2.1-1c0-0.6-0.3-0.8-2.7-1.2
			c-2.8-0.5-4.3-1.1-4.3-4c0-3,2.3-4.2,5-4.2c1.9,0,5,0.7,5,0.7L328.4,30.2z"/>
		<path class="st4" d="M331.4,39.9v-13h3.5v0.7c0,0,1.8-1,3.1-1c1.5,0,2.5,0.4,3.3,1.2c0,0,2.4-1.2,4.4-1.2c3.5,0,4.6,2.1,4.6,6.3v7
			h-3.5V33c0-2-0.3-3.2-1.8-3.2c-1,0-2.4,0.5-2.4,0.5s0.1,1.9,0.1,3v6.7H339v-6.7c0-2.3-0.2-3.5-1.8-3.5c-1.1,0-2.3,0.5-2.3,0.5v9.7
			H331.4z"/>
		<path class="st4" d="M363.5,37l0.1,2.6c0,0-3,0.7-5.4,0.7c-3.9,0-5.6-2-5.6-6.6c0-4.6,2-7,5.7-7c3.8,0,5.7,2,5.7,5.9l-0.3,2.4
			h-7.6c0,1.6,0.8,2.3,2.6,2.3C360.8,37.2,363.5,37,363.5,37z M360.5,32.3c0-2.1-0.6-2.8-2.2-2.8c-1.7,0-2.2,0.8-2.3,2.8H360.5z"/>
		<path class="st4" d="M366.5,39.9v-13h3.5v0.7c0,0,1.8-1,3.3-1c3.6,0,4.6,2.3,4.6,6.3v7h-3.5V33c0-2-0.3-3.2-2-3.2
			c-1.2,0-2.4,0.5-2.4,0.5v9.7H366.5z"/>
		<path class="st4" d="M384.8,29.9v5.3c0,1.3,0,1.9,1.1,1.9c0.7,0,2-0.1,2-0.1l0.2,2.8c0,0-1.7,0.4-2.7,0.4c-3.1,0-4.1-1.2-4.1-4.9
			v-5.4h-1.5v-3h1.5v-3.6h3.5v3.6h3.2v3H384.8z"/>
	</g>
	<g>
		<g>
			<g>
				<g>
					<g>
						<path class="st6" d="M209.7,55.3c-4.9,0-9.8-1.5-13.8-4.4l2.9-4.2c4,2.9,9.2,4.1,14,3.2l0.8,5C212.3,55.2,211,55.3,209.7,55.3
							z"/>
					</g>
				</g>
			</g>
		</g>
		<g>
			<g>
				<g>
					<g>
						<g>
							<path class="st7" d="M193.2,48.7c-0.5-0.5-1.1-1.1-1.5-1.6c-4.3-4.9-6.4-11.2-6-17.7s3.2-12.5,8.1-16.8c3.4-3,7.5-5,11.9-5.8
								l0.8,5c-3.5,0.6-6.7,2.2-9.4,4.6c-3.8,3.4-6.1,8.1-6.4,13.3c-0.3,5.1,1.4,10.1,4.7,14c0.4,0.4,0.8,0.9,1.2,1.3L193.2,48.7z"
								/>
						</g>
					</g>
				</g>
			</g>
			<g>
				<g>
					<g>
						<g>
							<path class="st8" d="M209.6,60c-2.3,0-4.6-0.3-6.8-0.8c-15.3-3.8-24.7-19.5-20.9-35.1c3.2-13.3,15.3-22.6,28.8-22.1l-0.1,1.9
								c-12.6-0.5-23.9,8.2-26.9,20.6c-3.5,14.5,5.3,29.2,19.6,32.8c6.1,1.5,12.5,0.8,18.1-2l0.8,1.7C218.3,59,214,60,209.6,60z"/>
						</g>
					</g>
				</g>
			</g>
		</g>
	</g>
</g>
<g>
	<g>
		<g>
			<path class="st2" d="M437.3,24.8c0,0-3.7-0.4-5.2-0.4c-1.9,0-2.8,0.7-2.8,1.9c0,1.1,0.7,1.5,3.7,2.4c3.8,1.2,5,2.3,5,5.2
				c0,3.8-2.6,5.6-6.1,5.6c-2.4,0-5.9-0.8-5.9-0.8l0.4-2.8c0,0,3.5,0.5,5.3,0.5c1.9,0,2.8-0.9,2.8-2.3c0-1.1-0.6-1.6-3.2-2.3
				c-4-1.1-5.5-2.5-5.5-5.3c0-3.7,2.4-5.3,6-5.3c2.4,0,5.8,0.7,5.8,0.7L437.3,24.8z"/>
			<path class="st2" d="M440.5,39.3v-13h3.5V27c0,0,1.8-1,3.1-1c1.5,0,2.5,0.4,3.3,1.2c0,0,2.4-1.2,4.4-1.2c3.5,0,4.6,2.1,4.6,6.3v7
				h-3.5v-6.9c0-2-0.3-3.3-1.8-3.3c-1,0-2.4,0.5-2.4,0.5s0.1,2,0.1,3v6.7h-3.5v-6.7c0-2.3-0.2-3.5-1.8-3.5c-1.1,0-2.3,0.5-2.3,0.5
				v9.7H440.5z"/>
			<path class="st2" d="M472.2,35.7c0.1,0.8,0.2,1.1,0.9,1.2l-0.1,2.6c-1.7,0-2.6-0.2-3.7-0.9c0,0-1.9,0.9-3.8,0.9
				c-2.7,0-4-1.5-4-4.3c0-2.9,1.7-3.8,4.6-4l2.8-0.2v-0.8c0-1.1-0.5-1.4-1.5-1.4c-1.7,0-4.9,0.2-4.9,0.2l-0.1-2.4
				c0,0,2.8-0.8,5.3-0.8c3.4,0,4.7,1.3,4.7,4.4V35.7z M466.4,33.8c-0.9,0.1-1.5,0.5-1.5,1.5c0,0.9,0.3,1.5,1.3,1.5
				c1.1,0,2.5-0.4,2.5-0.4v-2.8L466.4,33.8z"/>
			<path class="st2" d="M475.6,26.3h3.5v1.4c0,0,2.2-1.3,4.2-1.7v3.5c-2.3,0.4-4.1,1.1-4.1,1.1v8.7h-3.5V26.3z"/>
			<path class="st2" d="M489.3,29.2v5.3c0,1.3,0,1.9,1.1,1.9c0.7,0,2-0.1,2-0.1l0.2,2.8c0,0-1.7,0.4-2.7,0.4c-3.1,0-4.1-1.2-4.1-4.9
				v-5.4h-1.5v-3h1.5v-3.6h3.5v3.6h3.2v3H489.3z"/>
			<path class="st2" d="M503.6,21.5h6.8l4,17.7h-3.6l-0.7-3.2h-6.2l-0.7,3.2h-3.6L503.6,21.5z M504.6,32.9h4.8l-1.8-8.4h-1.2
				L504.6,32.9z"/>
			<path class="st2" d="M516.5,26.2h3.5v0.7c0,0,1.7-1,3-1c3.4,0,5.1,1.9,5.1,6.7c0,5.5-1.9,6.9-5.9,6.9c-1,0-2.2-0.2-2.2-0.2v5.4
				h-3.5V26.2z M519.9,29.5v6.8c0,0,1.2,0.2,1.9,0.2c2.1,0,2.6-1.1,2.6-3.9c0-2.6-0.9-3.6-2.3-3.6C521.1,29,519.9,29.5,519.9,29.5z"
				/>
			<path class="st2" d="M530.6,26.2h3.5v0.7c0,0,1.7-1,3-1c3.4,0,5.1,1.9,5.1,6.7c0,5.5-1.9,6.9-5.9,6.9c-1,0-2.2-0.2-2.2-0.2v5.4
				h-3.5V26.2z M534.1,29.5v6.8c0,0,1.2,0.2,1.9,0.2c2.1,0,2.6-1.1,2.6-3.9c0-2.6-0.9-3.6-2.3-3.6C535.3,29,534.1,29.5,534.1,29.5z"
				/>
			<path class="st2" d="M557.7,21.5c3.6,0,5.5,1.3,5.5,4.7c0,2-0.5,3-2,3.9c1.5,0.7,2.3,1.7,2.3,4c0,3.5-2.2,5.1-5.7,5.1h-7V21.5
				H557.7z M554.4,24.6v4.2h3.2c1.4,0,2-0.7,2-2.1c0-1.5-0.7-2.1-2.1-2.1H554.4z M554.4,31.8v4.3h3.3c1.5,0,2.3-0.4,2.3-2.2
				c0-1.5-0.9-2.1-2.3-2.1H554.4z"/>
			<path class="st2" d="M577.5,26.2v13H574v-0.7c0,0-1.9,1-3.3,1c-3.8,0-4.6-2.1-4.6-6.5v-6.8h3.5v6.9c0,2.3,0.1,3.3,1.8,3.3
				c1.3,0,2.5-0.5,2.5-0.5v-9.7H577.5z"/>
			<path class="st2" d="M580.7,21h3.5v3.5h-3.5V21z M580.7,26.2h3.5v13h-3.5V26.2z"/>
			<path class="st2" d="M587.5,21h3.5v18.2h-3.5V21z"/>
			<path class="st2" d="M605.5,39.2H602v-0.5c0,0-1.8,0.9-3.1,0.9c-3.9,0-5.1-2.3-5.1-6.9c0-4.8,1.8-6.8,5.4-6.8
				c1,0,2.8,0.4,2.8,0.4V21h3.5V39.2z M602,36v-6.8c0,0-1.4-0.3-2.5-0.3c-1.3,0-2.1,1.1-2.1,3.7c0,2.7,0.5,3.7,2.1,3.7
				C600.7,36.4,602,36,602,36z"/>
			<path class="st2" d="M619,36.2l0.1,2.6c0,0-3,0.7-5.4,0.7c-3.9,0-5.6-2-5.6-6.6c0-4.6,2-7,5.7-7c3.8,0,5.7,2,5.7,5.9l-0.3,2.4
				h-7.6c0,1.6,0.8,2.3,2.6,2.3C616.3,36.5,619,36.2,619,36.2z M616,31.5c0-2.1-0.6-2.8-2.2-2.8c-1.7,0-2.2,0.8-2.3,2.8H616z"/>
			<path class="st2" d="M621.9,26.2h3.5v1.4c0,0,2.2-1.3,4.2-1.7v3.5c-2.3,0.4-4.1,1.1-4.1,1.1v8.7h-3.5V26.2z"/>
		</g>
	</g>
	<g>
		<g>
			<g>
				<g>
					<g>
						<path class="st6" d="M432.9,55.3c-4.9,0-9.8-1.5-13.8-4.4l2.9-4.2c4,2.9,9.2,4.1,14,3.2l0.8,5
							C435.5,55.2,434.2,55.3,432.9,55.3z"/>
					</g>
				</g>
			</g>
		</g>
		<g>
			<g>
				<g>
					<g>
						<g>
							<path class="st7" d="M416.4,48.7c-0.5-0.5-1.1-1.1-1.5-1.6c-4.3-4.9-6.4-11.2-6-17.7s3.2-12.5,8.1-16.8c3.4-3,7.5-5,11.9-5.8
								l0.8,5c-3.5,0.6-6.7,2.2-9.4,4.6c-3.8,3.4-6.1,8.1-6.4,13.3c-0.3,5.1,1.4,10.1,4.7,14c0.4,0.4,0.8,0.9,1.2,1.3L416.4,48.7z"
								/>
						</g>
					</g>
				</g>
			</g>
			<g>
				<g>
					<g>
						<g>
							<path class="st8" d="M432.8,60c-2.3,0-4.6-0.3-6.8-0.8c-15.3-3.8-24.7-19.5-20.9-35.1c3.2-13.3,15.3-22.6,28.8-22.1l-0.1,1.9
								c-12.6-0.5-23.9,8.2-26.9,20.6c-3.5,14.5,5.3,29.2,19.6,32.8c6.1,1.5,12.5,0.8,18.1-2l0.8,1.7C441.4,59,437.1,60,432.8,60z"
								/>
						</g>
					</g>
				</g>
			</g>
		</g>
	</g>
</g>
<g>
	<g>
		<path class="st2" d="M-550.7,28.3c-0.4,0-0.8,0.1-1.2,0.2c-0.3,0.2-0.6,0.4-0.8,0.6c-0.2,0.3-0.4,0.6-0.5,0.9
			c-0.1,0.3-0.2,0.7-0.2,1l0,0.2h5.4l0-0.1c0-0.3-0.1-0.7-0.2-1c-0.1-0.3-0.3-0.6-0.5-0.9c-0.2-0.3-0.5-0.5-0.8-0.6
			C-549.8,28.4-550.2,28.3-550.7,28.3 M-550.1,39.5c-1.2,0-2.2-0.2-3.1-0.5c-0.9-0.4-1.6-0.8-2.2-1.5c-0.6-0.6-1-1.4-1.3-2.2
			c-0.3-0.8-0.4-1.8-0.4-2.8c0-1.2,0.2-2.2,0.5-3.1c0.4-0.9,0.8-1.6,1.4-2.2c0.6-0.6,1.3-1,2-1.3c0.8-0.3,1.5-0.5,2.3-0.5
			c1.9,0,3.4,0.6,4.4,1.7c1.1,1.2,1.6,2.9,1.6,5.1c0,0.2,0,0.5,0,0.7c0,0.2,0,0.4,0,0.6h-8.7l0,0.2c0.1,0.8,0.5,1.5,1.2,2
			c0.7,0.5,1.6,0.7,2.7,0.7c0.7,0,1.4-0.1,2.1-0.2c0.6-0.1,1.1-0.3,1.5-0.4l0.5,2.9c-0.2,0.1-0.4,0.2-0.7,0.3
			c-0.3,0.1-0.7,0.2-1.1,0.3c-0.4,0.1-0.9,0.1-1.3,0.2C-549.1,39.5-549.6,39.5-550.1,39.5 M-560,38.5c1-0.7,1.4-1.7,1.4-2.9
			c0-0.6-0.1-1-0.2-1.5c-0.1-0.4-0.3-0.8-0.6-1.1c-0.3-0.3-0.7-0.7-1.3-1c-0.5-0.3-1.2-0.6-2.1-0.9c-0.4-0.2-0.8-0.3-1-0.4
			c-0.3-0.1-0.5-0.3-0.6-0.4c-0.2-0.1-0.3-0.3-0.4-0.4c-0.1-0.1-0.1-0.3-0.1-0.5c0-0.8,0.6-1.2,1.9-1.2c0.7,0,1.3,0.1,1.8,0.2
			c0.5,0.1,0.9,0.2,1.3,0.4l0.6-2.7c-0.4-0.2-1-0.3-1.7-0.4c-0.7-0.1-1.5-0.2-2.3-0.2c-1.6,0-2.9,0.4-3.8,1.1
			c-0.9,0.7-1.4,1.7-1.4,2.9c0,0.6,0.1,1.2,0.3,1.6c0.2,0.4,0.4,0.8,0.8,1.2c0.3,0.3,0.7,0.6,1.2,0.8c0.5,0.2,1,0.5,1.6,0.7
			c0.8,0.3,1.4,0.6,1.7,0.8c0.4,0.3,0.6,0.6,0.6,0.9c0,0.5-0.2,0.8-0.5,0.9c-0.3,0.1-0.8,0.2-1.5,0.2c-0.7,0-1.4-0.1-2.1-0.2
			c-0.6-0.1-1.3-0.3-1.9-0.6l-0.6,2.9c0.3,0.1,0.8,0.3,1.5,0.5c0.8,0.2,1.8,0.3,3,0.3C-562.4,39.5-561,39.2-560,38.5 M-570.8,39.1
			v-7.6c0-0.9-0.1-1.8-0.3-2.5c-0.2-0.7-0.5-1.4-0.9-1.9c-0.4-0.5-1-1-1.7-1.2c-0.7-0.3-1.7-0.4-2.8-0.4c-1.1,0-2.2,0.1-3.2,0.2
			c-1,0.2-1.8,0.3-2.4,0.5v13h3.5V28.6l0.1,0c0.2,0,0.5-0.1,0.8-0.1c0.3,0,0.6,0,0.9,0c0.9,0,1.6,0.3,1.9,0.8
			c0.3,0.5,0.5,1.4,0.5,2.7v7.1H-570.8z M-590.4,28.3c-0.4,0-0.8,0.1-1.2,0.2c-0.3,0.2-0.6,0.4-0.8,0.6c-0.2,0.3-0.4,0.6-0.5,0.9
			c-0.1,0.3-0.2,0.7-0.3,1l0,0.2h5.4l0-0.1c0-0.3-0.1-0.7-0.2-1c-0.1-0.3-0.3-0.6-0.5-0.9c-0.2-0.3-0.5-0.5-0.8-0.6
			C-589.5,28.4-589.9,28.3-590.4,28.3 M-589.8,39.5c-1.2,0-2.2-0.2-3.1-0.5c-0.9-0.4-1.6-0.8-2.2-1.5c-0.6-0.6-1-1.4-1.3-2.2
			c-0.3-0.8-0.4-1.8-0.4-2.8c0-1.2,0.2-2.2,0.5-3.1c0.4-0.9,0.8-1.6,1.4-2.2c0.6-0.6,1.3-1,2-1.3c0.8-0.3,1.5-0.5,2.3-0.5
			c1.9,0,3.4,0.6,4.4,1.7c1.1,1.2,1.6,2.9,1.6,5.1c0,0.2,0,0.5,0,0.7c0,0.2,0,0.4,0,0.6h-8.7l0,0.2c0.1,0.8,0.5,1.5,1.2,2
			c0.7,0.5,1.6,0.7,2.7,0.7c0.7,0,1.4-0.1,2.1-0.2c0.6-0.1,1.1-0.3,1.5-0.4l0.5,2.9c-0.2,0.1-0.4,0.2-0.7,0.3
			c-0.3,0.1-0.7,0.2-1.1,0.3c-0.4,0.1-0.9,0.1-1.3,0.2C-588.8,39.5-589.3,39.5-589.8,39.5 M-597,39.1l-0.7-3.1h-8.5l0.1-0.2
			c0.6-1,1.3-2.1,2.1-3.3c0.8-1.1,1.6-2.3,2.4-3.3c0.8-1.1,1.6-2.1,2.3-3c0.7-0.9,1.4-1.6,1.9-2.2v-2.6h-13l0.7,3.1h7.4l-0.2,0.2
			c-0.7,0.8-1.4,1.7-2.2,2.8c-0.8,1-1.5,2.1-2.3,3.2c-0.7,1.1-1.5,2.2-2.2,3.3c-0.7,1.1-1.3,2.1-1.7,2.9v2.3H-597z M-617.8,33.2
			c-0.4,0-0.7,0-1,0.1c-0.3,0-0.6,0.1-0.9,0.3c-0.3,0.1-0.5,0.3-0.6,0.5c-0.1,0.2-0.2,0.5-0.2,0.9c0,0.7,0.2,1.1,0.7,1.4
			c0.4,0.2,1,0.4,1.7,0.4c0.4,0,0.7,0,1.1,0c0.3,0,0.6,0,0.8-0.1l0.1,0v-3.2l-0.1,0c-0.2,0-0.4-0.1-0.7-0.1
			C-617.2,33.2-617.5,33.2-617.8,33.2 M-618.4,39.4c-0.9,0-1.6-0.1-2.3-0.2c-0.7-0.2-1.3-0.4-1.8-0.7c-0.5-0.3-0.9-0.8-1.1-1.3
			c-0.3-0.6-0.4-1.2-0.4-2c0-0.8,0.2-1.4,0.5-2c0.3-0.5,0.7-1,1.2-1.3c0.5-0.3,1.1-0.6,1.8-0.7c0.7-0.1,1.4-0.2,2.1-0.2
			c0.5,0,0.9,0,1.3,0.1c0.4,0,0.7,0.1,0.9,0.2l0.2,0.1v-0.6c0-0.7-0.2-1.3-0.6-1.7c-0.4-0.4-1.1-0.6-2.1-0.6c-0.7,0-1.3,0-1.9,0.1
			c-0.6,0.1-1.1,0.2-1.5,0.4l-0.4-2.8c0.2-0.1,0.4-0.1,0.7-0.2c0.3-0.1,0.7-0.1,1.1-0.2c0.4-0.1,0.8-0.1,1.2-0.2
			c0.4,0,0.9-0.1,1.3-0.1c1.1,0,2,0.1,2.8,0.4c0.7,0.3,1.3,0.6,1.7,1.1c0.4,0.5,0.7,1,0.9,1.7c0.2,0.7,0.3,1.4,0.3,2.3v8
			c-0.5,0.1-1.3,0.3-2.2,0.4C-615.8,39.3-617,39.4-618.4,39.4 M-626.3,39.3c0.5-0.1,1-0.3,1.4-0.4l-0.5-2.7
			c-0.3,0.1-0.7,0.2-1.1,0.3c-0.4,0.1-0.9,0.1-1.3,0.1c-0.9,0-1.5-0.3-1.8-0.8c-0.3-0.5-0.4-1.2-0.4-2v-5h4.6v-2.9h-4.6v-3l-3.5,0.6
			v10.3c0,0.9,0.1,1.7,0.2,2.4c0.2,0.7,0.4,1.3,0.8,1.8c0.4,0.5,0.9,0.9,1.6,1.2c0.7,0.3,1.5,0.4,2.5,0.4
			C-627.5,39.5-626.8,39.4-626.3,39.3 M-641.2,33.2c-0.4,0-0.7,0-1,0.1c-0.3,0-0.6,0.1-0.9,0.3c-0.3,0.1-0.5,0.3-0.6,0.5
			c-0.2,0.2-0.2,0.5-0.2,0.9c0,0.7,0.2,1.1,0.7,1.4c0.4,0.2,1,0.4,1.7,0.4c0.4,0,0.7,0,1.1,0c0.3,0,0.6,0,0.8-0.1l0.1,0v-3.2l-0.1,0
			c-0.2,0-0.4-0.1-0.7-0.1C-640.6,33.2-640.9,33.2-641.2,33.2 M-641.8,39.4c-0.9,0-1.6-0.1-2.3-0.2c-0.7-0.2-1.3-0.4-1.8-0.7
			c-0.5-0.3-0.9-0.8-1.1-1.3c-0.3-0.6-0.4-1.2-0.4-2c0-0.8,0.2-1.4,0.5-2c0.3-0.5,0.7-1,1.2-1.3c0.5-0.3,1.1-0.6,1.8-0.7
			c0.7-0.1,1.4-0.2,2.1-0.2c0.5,0,0.9,0,1.3,0.1c0.4,0,0.7,0.1,0.9,0.2l0.2,0.1v-0.6c0-0.7-0.2-1.3-0.6-1.7
			c-0.4-0.4-1.1-0.6-2.1-0.6c-0.7,0-1.3,0-1.9,0.1c-0.6,0.1-1.1,0.2-1.5,0.4l-0.4-2.8c0.2-0.1,0.4-0.1,0.7-0.2
			c0.3-0.1,0.7-0.1,1.1-0.2c0.4-0.1,0.8-0.1,1.2-0.2c0.4,0,0.9-0.1,1.3-0.1c1.1,0,2,0.1,2.8,0.4c0.7,0.3,1.3,0.6,1.7,1.1
			c0.4,0.5,0.7,1,0.9,1.7c0.2,0.7,0.3,1.4,0.3,2.3v8c-0.5,0.1-1.3,0.3-2.2,0.4C-639.3,39.3-640.4,39.4-641.8,39.4 M-655.2,28.4
			c-1.9,0-2.9,1.3-2.9,3.9c0,1.2,0.3,2.2,0.8,3c0.6,0.8,1.4,1.2,2.5,1.2c0.3,0,0.7,0,1,0c0.3,0,0.5-0.1,0.7-0.1l0.1,0v-7.2l-0.1,0
			c-0.3-0.2-0.6-0.3-1-0.4C-654.4,28.5-654.8,28.4-655.2,28.4 M-654.8,39.5c-1.1,0-2.1-0.2-2.9-0.5c-0.8-0.3-1.6-0.8-2.2-1.4
			c-0.6-0.6-1-1.3-1.3-2.2c-0.3-0.9-0.5-1.8-0.5-2.9c0-1.1,0.1-2.1,0.4-3c0.3-0.9,0.7-1.6,1.2-2.2c0.5-0.6,1.1-1.1,1.8-1.4
			c0.7-0.3,1.6-0.5,2.5-0.5c0.5,0,1,0.1,1.4,0.2c0.4,0.1,0.8,0.2,1.2,0.4l0.2,0.1v-5.9l3.5-0.6v19.1c-0.3,0.1-0.7,0.2-1.1,0.3
			c-0.4,0.1-0.9,0.2-1.4,0.2c-0.5,0.1-1,0.1-1.5,0.2C-653.9,39.5-654.3,39.5-654.8,39.5"/>
	</g>
	<g>
		<g>
			<g>
				<g>
					<path class="st6" d="M-670.6,48.7c-0.5-0.5-1.1-1.1-1.5-1.6c-4.3-4.9-6.4-11.2-6-17.7c0.4-6.5,3.2-12.5,8.1-16.8
						c3.4-3,7.5-5,11.9-5.8l0.8,5c-3.5,0.6-6.7,2.2-9.4,4.6c-3.8,3.4-6.1,8.1-6.4,13.3c-0.3,5.1,1.4,10.1,4.7,14
						c0.4,0.4,0.8,0.9,1.2,1.3L-670.6,48.7z"/>
				</g>
			</g>
		</g>
	</g>
	<g>
		<g>
			<g>
				<g>
					<path class="st6" d="M-654.1,55.3c-4.9,0-9.8-1.5-13.8-4.4l2.9-4.2c4,2.9,9.2,4.1,14,3.2l0.8,5
						C-651.4,55.2-652.8,55.3-654.1,55.3z"/>
				</g>
			</g>
		</g>
	</g>
	<g>
		<g>
			<g>
				<g>
					<path class="st6" d="M-654.1,60c-2.3,0-4.6-0.3-6.8-0.8c-15.3-3.8-24.7-19.5-20.9-35.1c3.2-13.3,15.3-22.6,28.8-22.1l-0.1,1.9
						c-12.6-0.5-23.9,8.2-26.9,20.6c-3.5,14.5,5.3,29.2,19.6,32.8c6.1,1.5,12.5,0.8,18.1-2l0.8,1.7C-645.5,59-649.8,60-654.1,60z"/>
				</g>
			</g>
		</g>
	</g>
</g>
<g>
	<g>
		<path class="st9" d="M-490.6,50.2l-5.7-5.8l16.5-16.9c1.6-1.6,4.1-1.6,5.7,0l0,0c1.6,1.6,1.6,4.2,0,5.8L-490.6,50.2z"/>
		<path class="st9" d="M-476.9,47.4l-7.9,0.7l9.7-10c1-1,2.6-1,3.6,0l0,0c1,1,1,2.6,0,3.7L-476.9,47.4z"/>
		<path class="st9" d="M-495.6,39.8l0.2-7.5l7.2-7.4c1-1,2.6-1,3.6,0l0,0c1,1,1,2.6,0,3.7L-495.6,39.8z"/>
		<path class="st10" d="M-466.5,32.7l0,12c0,0.9-0.7,1.7-1.7,1.7h-24.6c-0.9,0-1.7-0.8-1.7-1.7l0-37.5c0-0.9,0.7-1.7,1.7-1.7h24.6
			c0.9,0,1.7,0.8,1.7,1.7l0,3.4h3.4V5.5c0-1.9-1.5-3.4-3.3-3.4h-28.1c-1.8,0-3.3,1.5-3.3,3.4v51.1c0,1.9,1.5,3.4,3.3,3.4h28.1
			c1.8,0,3.3-1.5,3.3-3.4V32.7H-466.5z M-480.5,58.4c-2.7,0-4.9-2.2-4.9-5c0-2.7,2.2-5,4.9-5c2.7,0,4.9,2.2,4.9,5
			C-475.6,56.1-477.8,58.4-480.5,58.4z"/>
		<ellipse class="st9" cx="-467.7" cy="21.9" rx="4.1" ry="4.2"/>
		<path class="st9" d="M-458.1,15.2c0,1.4-1.1,2.5-2.5,2.5c-1.4,0-2.5-1.1-2.5-2.5c0-1.4,1.1-2.5,2.5-2.5
			C-459.2,12.7-458.1,13.8-458.1,15.2z"/>
		<path class="st9" d="M-456.1,23.3c0,1.4-1.1,2.5-2.5,2.5c-1.4,0-2.5-1.1-2.5-2.5c0-1.4,1.1-2.5,2.5-2.5
			C-457.2,20.7-456.1,21.9-456.1,23.3z"/>
		<ellipse class="st9" cx="-455" cy="9.8" rx="1.6" ry="1.6"/>
	</g>
	<g>
		<g>
			<path class="st2" d="M-445.4,34h6.7l3.9,17.8h-3.5l-0.7-3.2h-6.1l-0.7,3.2h-3.5L-445.4,34z M-444.4,45.4h4.8l-1.8-8.5h-1.2
				L-444.4,45.4z"/>
			<path class="st2" d="M-432.7,38.7h3.4v0.7c0,0,1.7-1,2.9-1c3.4,0,5.1,1.9,5.1,6.8c0,5.6-1.9,7-5.8,7c-0.9,0-2.1-0.2-2.1-0.2v5.4
				h-3.4V38.7z M-429.2,42.1v6.9c0,0,1.2,0.2,1.9,0.2c2.1,0,2.6-1.2,2.6-3.9c0-2.6-0.9-3.6-2.2-3.6
				C-428.1,41.5-429.2,42.1-429.2,42.1z"/>
			<path class="st2" d="M-418.7,38.7h3.4v0.7c0,0,1.7-1,2.9-1c3.4,0,5.1,1.9,5.1,6.8c0,5.6-1.9,7-5.8,7c-0.9,0-2.1-0.2-2.1-0.2v5.4
				h-3.4V38.7z M-415.3,42.1v6.9c0,0,1.2,0.2,1.9,0.2c2.1,0,2.6-1.2,2.6-3.9c0-2.6-0.9-3.6-2.2-3.6
				C-414.1,41.5-415.3,42.1-415.3,42.1z"/>
			<path class="st2" d="M-398.8,34h6l3.1,13l3.1-13h6v17.8h-3.5V38h-0.4l-3.4,13h-3.5l-3.4-13h-0.4v13.8h-3.5V34z"/>
		</g>
	</g>
</g>
</svg>
