<svg width="120" height="120" viewBox="0 0 120 120" fill="none" xmlns="http://www.w3.org/2000/svg">
<path d="M52.9332 60.4373L50.6092 57.7123C48.3577 58.7987 45.8402 59.2113 43.3598 58.9006C40.8793 58.5898 38.5414 57.569 36.6274 55.9609C34.7135 54.3527 33.3049 52.2258 32.5713 49.836C31.8377 47.4462 31.8102 44.8954 32.4922 42.4903L39.2312 49.2293L48.2312 40.2293L41.4922 33.4903C43.897 32.8097 46.4473 32.8382 48.8363 33.5723C51.2254 34.3064 53.3516 35.7148 54.9594 37.6284C56.5672 39.5419 57.5881 41.8791 57.8993 44.3589C58.2106 46.8388 57.7991 49.3558 56.7142 51.6073L60.0002 54.4103" stroke="#59B7D3" stroke-width="2" stroke-miterlimit="10" stroke-linecap="round" stroke-linejoin="round"/>
<path d="M71.4741 64.1983L86.5881 77.0873C87.0097 77.445 87.3526 77.8862 87.595 78.3831C87.8375 78.88 87.9744 79.4218 87.9969 79.9742C88.0195 80.5266 87.9272 81.0777 87.7261 81.5927C87.5249 82.1077 87.2192 82.5754 86.8281 82.9663L81.9681 87.8263C81.5773 88.2173 81.1096 88.5231 80.5946 88.7242C80.0796 88.9254 79.5285 89.0176 78.976 88.9951C78.4236 88.9725 77.8818 88.8357 77.3849 88.5932C76.8881 88.3507 76.4468 88.0079 76.0891 87.5863L63.8121 73.1863" stroke="#59B7D3" stroke-width="2" stroke-miterlimit="10" stroke-linecap="round" stroke-linejoin="round"/>
<path d="M87.5081 42.4903L80.7691 49.2293L71.7691 40.2293L78.5081 33.4903C76.1032 32.8097 73.553 32.8382 71.1639 33.5723C68.7748 34.3064 66.6486 35.7148 65.0409 37.6284C63.4331 39.5419 62.4122 41.8791 62.1009 44.3589C61.7896 46.8388 62.2012 49.3558 63.2861 51.6073L33.4121 77.0873C32.9905 77.445 32.6477 77.8863 32.4052 78.3831C32.1627 78.88 32.0259 79.4218 32.0033 79.9742C31.9808 80.5267 32.073 81.0778 32.2742 81.5928C32.4753 82.1078 32.7811 82.5755 33.1721 82.9663L38.0321 87.8263C38.423 88.2174 38.8907 88.5231 39.4057 88.7243C39.9207 88.9254 40.4718 89.0177 41.0242 88.9951C41.5766 88.9726 42.1184 88.8357 42.6153 88.5932C43.1122 88.3508 43.5534 88.0079 43.9111 87.5863L69.3911 57.7123C71.6426 58.7987 74.16 59.2113 76.6405 58.9006C79.121 58.5898 81.4589 57.569 83.3728 55.9609C85.2868 54.3527 86.6953 52.2258 87.429 49.836C88.1626 47.4462 88.1901 44.8954 87.5081 42.4903Z" stroke="#59B7D3" stroke-width="2" stroke-miterlimit="10" stroke-linecap="round" stroke-linejoin="round"/>
</svg>
